<svg xmlns="http://www.w3.org/2000/svg" width="186" height="56" viewBox="0 0 186 56">
  <defs>
    <style>
      .cls-1 {
        opacity: 0.9;
      }

      .cls-2 {
        fill: #f5f5f5;
      }

      .cls-3 {
        stroke: rgba(0,0,0,0);
        stroke-miterlimit: 10;
      }
    </style>
  </defs>
  <g id="Badge-AppStore" class="cls-1">
    <rect id="Rectangle" class="cls-2" width="186" height="56" rx="8"/>
    <g id="Group_3" data-name="Group 3" transform="translate(23 10)">
      <g id="_Group_2" transform="translate(0 1)">
        <g id="_Group_3">
          <path id="_Path_" d="M20.463,8.75a6.843,6.843,0,0,1,3.259-5.742A7.005,7.005,0,0,0,18.2.025c-2.322-.244-4.573,1.39-5.757,1.39-1.206,0-3.028-1.365-4.99-1.325A7.35,7.35,0,0,0,1.27,3.862C-1.4,8.492.59,15.3,3.152,19.04c1.282,1.833,2.78,3.88,4.74,3.807,1.918-.08,2.634-1.223,4.95-1.223,2.294,0,2.966,1.223,4.966,1.177,2.058-.033,3.355-1.841,4.592-3.691a15.159,15.159,0,0,0,2.1-4.276A6.613,6.613,0,0,1,20.463,8.75Z" transform="translate(0.201 7.26)"/>
          <path id="_Path_2" d="M4.49,4.827A6.738,6.738,0,0,0,6.031,0,6.855,6.855,0,0,0,1.6,2.3,6.411,6.411,0,0,0,.014,6.943,5.668,5.668,0,0,0,4.49,4.827Z" transform="translate(12.396 -0.004)"/>
        </g>
      </g>
      <g id="Group" transform="translate(33.429 13.589)">
        <path id="Shape" class="cls-3" d="M2.773,17.173H0L6.2,0H9.08l6.2,17.171H12.46l-1.57-4.641H4.344L2.773,17.172ZM7.582,2.857l-2.56,7.532H10.21L7.653,2.857Z" transform="translate(0.591 0.348)"/>
        <path id="Shape-2" data-name="Shape" class="cls-3" d="M2.569,16.795H0V.133H2.488V2.216h.047A4.454,4.454,0,0,1,6.377,0l.145,0a4.8,4.8,0,0,1,3.828,1.741,7.191,7.191,0,0,1,1.444,4.65,7.231,7.231,0,0,1-1.434,4.654,4.741,4.741,0,0,1-3.791,1.736c-.073,0-.148.006-.222.006a4.244,4.244,0,0,1-3.717-2.2h-.06v6.2Zm3.274-14.6c-1.965,0-3.285,1.688-3.285,4.2s1.32,4.212,3.285,4.212c2.01,0,3.308-1.653,3.308-4.212S7.853,2.192,5.844,2.192Z" transform="translate(17.467 4.866)"/>
        <path id="Shape-3" data-name="Shape" class="cls-3" d="M2.569,16.795H0V.133H2.488V2.216h.047A4.454,4.454,0,0,1,6.377,0l.145,0a4.8,4.8,0,0,1,3.828,1.74,7.191,7.191,0,0,1,1.444,4.65,7.231,7.231,0,0,1-1.434,4.654,4.741,4.741,0,0,1-3.791,1.736c-.073,0-.148.006-.222.006a4.244,4.244,0,0,1-3.717-2.2h-.06v6.2Zm3.274-14.6c-1.965,0-3.285,1.688-3.285,4.2s1.32,4.212,3.285,4.212c2.01,0,3.308-1.653,3.308-4.212S7.853,2.192,5.844,2.192Z" transform="translate(31.247 4.866)"/>
        <path id="Path" class="cls-3" d="M2.631,12.674c.19,1.7,1.845,2.821,4.105,2.821,2.166,0,3.725-1.118,3.725-2.654,0-1.333-.94-2.131-3.165-2.678L5.07,9.627C1.916,8.866.452,7.391.452,5c0-2.963,2.582-5,6.249-5,3.629,0,6.116,2.035,6.2,5H10.307C10.151,3.284,8.735,2.25,6.664,2.25S3.178,3.3,3.178,4.82c0,1.214.9,1.928,3.118,2.475l1.892.465c3.523.833,4.987,2.249,4.987,4.76,0,3.213-2.559,5.225-6.629,5.225C2.737,17.745.166,15.78,0,12.674Z" transform="translate(49.518 0.062)"/>
        <path id="Path-2" data-name="Path" class="cls-3" d="M4.4,0V2.963H6.783V5H4.4v6.9c0,1.072.477,1.572,1.523,1.572a8.031,8.031,0,0,0,.845-.059v2.023a7.057,7.057,0,0,1-1.427.119c-2.535,0-3.523-.952-3.523-3.38V5H0V2.963H1.82V0Z" transform="translate(63.836 2.037)"/>
        <path id="Shape-4" data-name="Shape" class="cls-3" d="M5.938,12.83A5.722,5.722,0,0,1,1.6,11.1,6.743,6.743,0,0,1,0,6.414,6.727,6.727,0,0,1,1.612,1.73,5.717,5.717,0,0,1,5.938,0a5.719,5.719,0,0,1,4.331,1.73,6.733,6.733,0,0,1,1.608,4.684,6.742,6.742,0,0,1-1.6,4.689A5.723,5.723,0,0,1,5.938,12.83Zm0-10.712c-2.079,0-3.32,1.606-3.32,4.3s1.241,4.3,3.32,4.3,3.32-1.606,3.32-4.3S8.017,2.118,5.938,2.118Z" transform="translate(71.998 4.847)"/>
        <path id="Path-3" data-name="Path" class="cls-3" d="M0,.133H2.451V2.264h.059A2.986,2.986,0,0,1,5.522,0,3.963,3.963,0,0,1,6.4.1V2.5a3.593,3.593,0,0,0-1.155-.155A2.59,2.59,0,0,0,2.57,5.227v7.426H0Z" transform="translate(85.994 4.866)"/>
        <path id="Shape-5" data-name="Shape" class="cls-3" d="M5.9,12.83C2.262,12.83,0,10.394,0,6.474S2.275,0,5.8,0a5.4,5.4,0,0,1,4.12,1.664,6.545,6.545,0,0,1,1.522,4.511v.88H2.594v.156A3.261,3.261,0,0,0,5.843,10.76l.119,0c.088.008.177.012.266.012A2.818,2.818,0,0,0,8.853,9h2.441C10.951,11.254,8.734,12.83,5.9,12.83ZM5.775,2.083a3.147,3.147,0,0,0-2.236.924A3.189,3.189,0,0,0,2.606,5.26H8.866A3.012,3.012,0,0,0,5.86,2.082H5.775Z" transform="translate(92.952 4.847)"/>
      </g>
      <g id="_Group_4" transform="translate(34.811 0)">
        <g id="Group-2" data-name="Group">
          <path id="Shape-6" data-name="Shape" d="M2.981,8.261H0V.009H2.981C3.067,0,3.155,0,3.242,0a3.651,3.651,0,0,1,3.621,4.11C6.863,6.748,5.448,8.261,2.981,8.261Zm-1.7-7.086V7.094H2.838c.052,0,.1,0,.155,0A2.594,2.594,0,0,0,5.558,4.127,2.6,2.6,0,0,0,2.982,1.171c-.048,0-.1,0-.145,0Z" transform="translate(0.928 1.001)"/>
          <path id="Shape-7" data-name="Shape" d="M2.951,6.467A2.95,2.95,0,0,1,.014,3.231,2.95,2.95,0,0,1,4.506.444,2.932,2.932,0,0,1,5.887,3.231,2.95,2.95,0,0,1,2.951,6.467Zm0-5.375c-1.061,0-1.669.78-1.669,2.139s.609,2.144,1.669,2.144,1.67-.781,1.67-2.144S4.014,1.092,2.953,1.092Z" transform="translate(9.224 2.915)"/>
          <path id="Path-4" data-name="Path" d="M6.92,6.227H5.645L4.358,1.641h-.1L2.979,6.227H1.716L0,0H1.246L2.362,4.751h.092L3.734,0H4.913l1.28,4.751h.1L7.4,0H8.629Z" transform="translate(15.999 3.035)"/>
          <path id="Path-5" data-name="Path" d="M0,.126H1.183v.989h.092A1.864,1.864,0,0,1,3.133.006,2.025,2.025,0,0,1,5.288,2.322V6.353H4.059V2.631c0-1-.435-1.5-1.344-1.5A1.428,1.428,0,0,0,1.229,2.71V6.353H0Z" transform="translate(26.072 2.909)"/>
          <path id="Path-6" data-name="Path" d="M.077,0H1.306V8.658H.077Z" transform="translate(33.241 0.604)"/>
          <path id="Shape-8" data-name="Shape" d="M2.951,6.468A2.952,2.952,0,0,1,.013,3.231,2.95,2.95,0,0,1,4.506.444,2.934,2.934,0,0,1,5.888,3.231,2.952,2.952,0,0,1,2.951,6.468Zm0-5.376c-1.061,0-1.67.78-1.67,2.139s.609,2.144,1.67,2.144,1.67-.781,1.67-2.144S4.014,1.092,2.953,1.092Z" transform="translate(36.242 2.915)"/>
          <path id="Shape-9" data-name="Shape" d="M1.881,6.459A1.88,1.88,0,0,1,0,4.586C0,3.48.822,2.82,2.316,2.727L4,2.63V2.092c0-.663-.453-1.029-1.274-1.029-.688,0-1.161.252-1.3.692H.24C.366.689,1.365,0,2.785,0,4.336,0,5.226.763,5.226,2.092V6.347H4.043V5.472h-.1a2.082,2.082,0,0,1-1.773.98l-.1,0A1.889,1.889,0,0,1,1.881,6.459ZM4,3.533l-1.52.1c-.85.057-1.247.343-1.247.9,0,.539.453.886,1.155.886.049,0,.1.007.147.007A1.467,1.467,0,0,0,4,4.054v-.52Z" transform="translate(43.423 2.915)"/>
          <path id="Shape-10" data-name="Shape" d="M2.665,8.762h-.08C.99,8.761,0,7.527,0,5.541,0,3.589,1.015,2.327,2.585,2.327l.1,0A2.047,2.047,0,0,1,4.495,3.42h.092V0H5.815V8.658H4.638V7.674h-.1A2.168,2.168,0,0,1,2.665,8.762Zm.268-5.33c-1.026,0-1.664.808-1.664,2.11,0,1.325.623,2.116,1.664,2.116s1.676-.809,1.676-2.11S3.967,3.432,2.933,3.432Z" transform="translate(50.264 0.604)"/>
          <path id="Shape-11" data-name="Shape" d="M2.951,6.467A2.95,2.95,0,0,1,.014,3.231,2.95,2.95,0,0,1,4.506.444,2.932,2.932,0,0,1,5.887,3.231,2.95,2.95,0,0,1,2.951,6.467Zm0-5.375c-1.061,0-1.669.78-1.669,2.139s.609,2.144,1.669,2.144,1.67-.781,1.67-2.144S4.014,1.092,2.953,1.092Z" transform="translate(61.15 2.915)"/>
          <path id="Path-7" data-name="Path" d="M0,.126H1.183v.989h.092A1.864,1.864,0,0,1,3.133.006,2.025,2.025,0,0,1,5.288,2.322V6.353H4.059V2.631c0-1-.435-1.5-1.344-1.5A1.428,1.428,0,0,0,1.229,2.71V6.353H0Z" transform="translate(68.686 2.909)"/>
          <path id="Path-8" data-name="Path" d="M2.219,0V1.579H3.568V2.614H2.219v3.2c0,.652.269.938.88.938a4.1,4.1,0,0,0,.469-.028V7.749a4.032,4.032,0,0,1-.668.063C1.533,7.812.989,7.331.989,6.13V2.614H0V1.579H.989V0Z" transform="translate(78.699 1.485)"/>
          <path id="Path-9" data-name="Path" d="M0,0H1.218V3.431h.1a1.916,1.916,0,0,1,1.9-1.115A2.051,2.051,0,0,1,5.359,4.637v4.02H4.128V4.941c0-.995-.463-1.5-1.332-1.5A1.455,1.455,0,0,0,1.229,5.021V8.658H0Z" transform="translate(83.946 0.604)"/>
          <path id="Shape-12" data-name="Shape" d="M3.178,6.482A2.549,2.549,0,0,1,2.9,6.467H2.83a2.828,2.828,0,0,1-2.8-3.215A2.872,2.872,0,0,1,2.873,0H2.9C4.637,0,5.675,1.174,5.675,3.139v.428h-4.4v.069a1.645,1.645,0,0,0,1.64,1.784h.019a1.492,1.492,0,0,0,1.481-.755H5.6A2.541,2.541,0,0,1,3.178,6.482ZM2.871,1.046a1.583,1.583,0,0,0-1.127.467A1.6,1.6,0,0,0,1.278,2.66H4.423a1.5,1.5,0,0,0-1.5-1.614H2.871Z" transform="translate(90.869 2.915)"/>
        </g>
      </g>
    </g>
  </g>
</svg>