<svg xmlns="http://www.w3.org/2000/svg" width="20" height="16" viewBox="0 0 20 16">
  <defs>
    <style>
      .cls-1 {
        fill: #5A409B;
      }
    </style>
  </defs>
  <path id="Union_6" data-name="Union 6" class="cls-1" d="M15.323,16V7.107a2.2,2.2,0,0,0-.567-1.625,2.218,2.218,0,0,0-1.636-.567H0V2.868A2.9,2.9,0,0,1,.732.732,2.894,2.894,0,0,1,2.868,0H17.132a2.894,2.894,0,0,1,2.136.732A2.9,2.9,0,0,1,20,2.868V13.132a2.9,2.9,0,0,1-.732,2.137A2.894,2.894,0,0,1,17.132,16Zm-5.13,0V6.465h2.75a.838.838,0,0,1,.622.22.862.862,0,0,1,.219.635V16ZM2.868,16a2.894,2.894,0,0,1-2.137-.732A2.9,2.9,0,0,1,0,13.132V6.465H8.654V16Z"/>
</svg>