<svg id="bedroom" xmlns="http://www.w3.org/2000/svg" width="36" height="29.086" viewBox="0 0 36 29.086"><g id="svgexport-6_21_" data-name="svgexport-6 (21)" transform="translate(0 0)"><path id="Path_2684" data-name="Path 2684" d="M43.419,101.814h-.581V96.526a2.5,2.5,0,0,0-2.323-2.644V82.644A2.5,2.5,0,0,0,38.194,80H13.806a2.5,2.5,0,0,0-2.323,2.644V93.882a2.5,2.5,0,0,0-2.323,2.644v5.288H8.581a.625.625,0,0,0-.581.661v2.644a.625.625,0,0,0,.581.661h.581v2.644a.625.625,0,0,0,.581.661h1.742a.6.6,0,0,0,.569-.531l.488-2.774H39.459l.488,2.774a.6.6,0,0,0,.569.531h1.742a.625.625,0,0,0,.581-.661v-2.644h.581A.625.625,0,0,0,44,105.12v-2.644A.625.625,0,0,0,43.419,101.814ZM12.645,82.644a1.251,1.251,0,0,1,1.161-1.322H38.194a1.251,1.251,0,0,1,1.161,1.322V93.882H38.194V91.238a2.5,2.5,0,0,0-2.323-2.644H28.9a2.5,2.5,0,0,0-2.323,2.644v2.644H25.419V91.238A2.5,2.5,0,0,0,23.1,88.594H16.129a2.5,2.5,0,0,0-2.323,2.644v2.644H12.645Zm24.387,8.594v2.644h-9.29V91.238A1.251,1.251,0,0,1,28.9,89.916h6.968A1.251,1.251,0,0,1,37.032,91.238Zm-12.774,0v2.644h-9.29V91.238a1.251,1.251,0,0,1,1.161-1.322H23.1A1.251,1.251,0,0,1,24.258,91.238ZM10.323,96.526A1.251,1.251,0,0,1,11.484,95.2H40.516a1.251,1.251,0,0,1,1.161,1.322v5.288H10.323Zm.685,11.238h-.685v-1.983h1.034Zm30.67,0h-.685l-.348-1.983h1.034Zm1.161-3.305H9.161v-1.322H42.839Z" transform="translate(-8 -80)" fill="#747070"></path></g></svg>