<svg xmlns="http://www.w3.org/2000/svg" xmlns:xlink="http://www.w3.org/1999/xlink" width="278" height="222" viewBox="0 0 278 222">
  <defs>
    <style>
      .cls-1 {
        fill: #fff;
        opacity: 0.87;
      }

      .cls-2 {
        filter: url(#Subtraction_8);
      }
    </style>
    <filter id="Subtraction_8" x="0" y="0" width="278" height="222" filterUnits="userSpaceOnUse">
      <feOffset dy="3" input="SourceAlpha"/>
      <feGaussianBlur stdDeviation="3" result="blur"/>
      <feFlood flood-opacity="0.051" result="color"/>
      <feComposite operator="out" in="SourceGraphic" in2="blur"/>
      <feComposite operator="in" in="color"/>
      <feComposite operator="in" in2="SourceGraphic"/>
    </filter>
  </defs>
  <g data-type="innerShadowGroup">
    <path id="Subtraction_8-2" data-name="Subtraction 8" class="cls-1" d="M9529,4126H9299a24,24,0,0,1-24-24V3928a24,24,0,0,1,24-24h61.746a54,54,0,1,0,106.506,0H9529a24,24,0,0,1,24,24v174a24,24,0,0,1-24,24Z" transform="translate(-9275 -3903.999)"/>
    <g class="cls-2" transform="matrix(1, 0, 0, 1, 0, 0)">
      <path id="Subtraction_8-3" data-name="Subtraction 8" class="cls-1" d="M9529,4126H9299a24,24,0,0,1-24-24V3928a24,24,0,0,1,24-24h61.746a54,54,0,1,0,106.506,0H9529a24,24,0,0,1,24,24v174a24,24,0,0,1-24,24Z" transform="translate(-9275 -3904)"/>
    </g>
  </g>
</svg>