<svg xmlns="http://www.w3.org/2000/svg" width="14" height="18" viewBox="0 0 14 18">
  <defs>
    <style>
      .cls-1 {
        fill: #82829a;
      }
    </style>
  </defs>
  <g id="Conditions_of_Reservation" data-name="Conditions of Reservation" transform="translate(-21 -5)">
    <path id="Conditions_of_Reservation-2" data-name="Conditions of Reservation" class="cls-1" d="M11.42,18H2.58a2.616,2.616,0,0,1-1.935-.655A2.717,2.717,0,0,1,0,15.372V2.636A2.734,2.734,0,0,1,.645.663,2.6,2.6,0,0,1,2.58,0h8.84a2.6,2.6,0,0,1,1.935.663A2.734,2.734,0,0,1,14,2.636V15.372a2.717,2.717,0,0,1-.645,1.973A2.616,2.616,0,0,1,11.42,18ZM2.647,1.352a1.308,1.308,0,0,0-.978.34,1.346,1.346,0,0,0-.329.969V15.347a1.332,1.332,0,0,0,.329.966,1.317,1.317,0,0,0,.978.336h8.707a1.313,1.313,0,0,0,.977-.336,1.329,1.329,0,0,0,.329-.966V2.661a1.343,1.343,0,0,0-.329-.969,1.3,1.3,0,0,0-.977-.34ZM6.842,10.73H3.854a.515.515,0,0,1-.374-.148.49.49,0,0,1-.15-.365A.515.515,0,0,1,3.854,9.7H6.842a.5.5,0,0,1,.366.151.507.507,0,0,1,.149.37.49.49,0,0,1-.149.365A.505.505,0,0,1,6.842,10.73ZM10.163,7.8H3.854a.492.492,0,0,1-.374-.156.521.521,0,0,1-.15-.374.483.483,0,0,1,.15-.356.508.508,0,0,1,.374-.147h6.309a.5.5,0,0,1,.371.147.49.49,0,0,1,.146.356.528.528,0,0,1-.146.374A.486.486,0,0,1,10.163,7.8Zm0-2.93H3.854a.51.51,0,0,1-.374-.15.518.518,0,0,1-.15-.378.484.484,0,0,1,.15-.357.508.508,0,0,1,.374-.147h6.309a.5.5,0,0,1,.371.147.491.491,0,0,1,.146.357.525.525,0,0,1-.146.378A.5.5,0,0,1,10.163,4.869Z" transform="translate(21 5)"/>
  </g>
</svg>