<svg xmlns="http://www.w3.org/2000/svg" xmlns:xlink="http://www.w3.org/1999/xlink" width="186" height="56" viewBox="0 0 186 56">
  <defs>
    <style>
      .cls-1 {
        opacity: 0.9;
      }

      .cls-2 {
        fill: #f5f5f5;
      }

      .cls-3, .cls-4 {
        fill: #08050d;
        stroke-miterlimit: 10;
      }

      .cls-3 {
        stroke: #fff;
        stroke-width: 0.583px;
      }

      .cls-4 {
        stroke: rgba(0,0,0,0);
      }

      .cls-5 {
        fill: url(#linear-gradient);
      }

      .cls-6 {
        fill: url(#linear-gradient-2);
      }

      .cls-7 {
        fill: url(#linear-gradient-3);
      }

      .cls-8 {
        fill: url(#linear-gradient-4);
      }

      .cls-9 {
        opacity: 0.2;
      }

      .cls-10 {
        opacity: 0.12;
      }

      .cls-11 {
        fill: #fff;
        opacity: 0.25;
      }
    </style>
    <linearGradient id="linear-gradient" x1="0.915" y1="0.049" x2="-0.386" y2="0.719" gradientUnits="objectBoundingBox">
      <stop offset="0" stop-color="#00a0ff"/>
      <stop offset="0.01" stop-color="#00a1ff"/>
      <stop offset="0.26" stop-color="#00beff"/>
      <stop offset="0.51" stop-color="#00d2ff"/>
      <stop offset="0.76" stop-color="#00dfff"/>
      <stop offset="1" stop-color="#00e3ff"/>
    </linearGradient>
    <linearGradient id="linear-gradient-2" x1="1.077" y1="0.5" x2="-1.306" y2="0.5" gradientUnits="objectBoundingBox">
      <stop offset="0" stop-color="#ffe000"/>
      <stop offset="0.41" stop-color="#ffbd00"/>
      <stop offset="0.78" stop-color="orange"/>
      <stop offset="1" stop-color="#ff9c00"/>
    </linearGradient>
    <linearGradient id="linear-gradient-3" x1="0.863" y1="0.179" x2="-0.502" y2="1.946" gradientUnits="objectBoundingBox">
      <stop offset="0" stop-color="#ff3a44"/>
      <stop offset="1" stop-color="#c31162"/>
    </linearGradient>
    <linearGradient id="linear-gradient-4" x1="-0.188" y1="-0.54" x2="0.421" y2="0.249" gradientUnits="objectBoundingBox">
      <stop offset="0" stop-color="#32a071"/>
      <stop offset="0.07" stop-color="#2da771"/>
      <stop offset="0.48" stop-color="#15cf74"/>
      <stop offset="0.8" stop-color="#06e775"/>
      <stop offset="1" stop-color="#00f076"/>
    </linearGradient>
  </defs>
  <g id="Badge-GooglePlay" class="cls-1">
    <rect id="Rectangle" class="cls-2" width="186" height="56" rx="8"/>
    <path id="Path" class="cls-3" d="M8.4,4.66A3.761,3.761,0,0,1,7.358,7.426,4.01,4.01,0,0,1,4.316,8.643,4.149,4.149,0,0,1,1.26,7.4,4.149,4.149,0,0,1,0,4.328,4.149,4.149,0,0,1,1.26,1.244a4.37,4.37,0,0,1,4.757-.9,3.512,3.512,0,0,1,1.3.927l-.733.733a2.766,2.766,0,0,0-2.268-1A3.208,3.208,0,0,0,1.094,4.328,3.264,3.264,0,0,0,6.625,6.721a2.669,2.669,0,0,0,.705-1.687H4.316v-1H8.34A5.186,5.186,0,0,1,8.4,4.66Z" transform="translate(56.18 9.5)"/>
    <path id="Path-2" data-name="Path" class="cls-3" d="M4.812,1.023H1.079V3.651h3.4v1h-3.4V7.274H4.812V8.3H0V0H4.812Z" transform="translate(66.096 9.68)"/>
    <path id="Path-3" data-name="Path" class="cls-3" d="M3.388,8.3H2.323V1.023H0V0H5.767V1.023H3.388Z" transform="translate(72.056 9.68)"/>
    <path id="Path-4" data-name="Path" class="cls-3" d="M.159,8.3V0H1.224V8.3Z" transform="translate(81.729 9.68)"/>
    <path id="Path-5" data-name="Path" class="cls-3" d="M3.388,8.3H2.323V1.023H0V0H5.7V1.023H3.388Z" transform="translate(84.295 9.68)"/>
    <path id="Shape" class="cls-3" d="M4.261,8.661A4.275,4.275,0,0,1,1.219,7.4,4.167,4.167,0,0,1,0,4.33,4.167,4.167,0,0,1,1.219,1.26,4.069,4.069,0,0,1,4.153,0H4.33A4.166,4.166,0,0,1,7.3,1.26,4.268,4.268,0,0,1,8.52,4.33,4.163,4.163,0,0,1,7.3,7.4,4.271,4.271,0,0,1,4.261,8.661ZM4.206,1.009a3.186,3.186,0,0,0-2.254.942A3.286,3.286,0,0,0,1.081,4.33a3.283,3.283,0,0,0,.926,2.379,5.813,5.813,0,0,0,2.254.942,3.186,3.186,0,0,0,2.254-.942A3.28,3.28,0,0,0,7.442,4.33,3.28,3.28,0,0,0,6.46,1.951,3.187,3.187,0,0,0,4.206,1.009Z" transform="translate(93.489 9.499)"/>
    <path id="Path-6" data-name="Path" class="cls-3" d="M0,8.3V0H1.286L5.324,6.458h0V0H6.389V8.3H5.283L1.065,1.535h0V8.3Z" transform="translate(103.516 9.68)"/>
    <path id="Exclusion_1" data-name="Exclusion 1" class="cls-4" d="M12491.8,13132.519a5.514,5.514,0,0,1-5.143-3.487l2.241-.927a3.259,3.259,0,0,0,2.973,2.09c2,0,3.142-1.26,3.142-3.457v-.844h-.1a3.985,3.985,0,0,1-3.021,1.382h-.076a5.89,5.89,0,0,1,0-11.767h.1a4.076,4.076,0,0,1,3,1.313h.1v-.97h2.39v10.54a6.326,6.326,0,0,1-1.629,4.691,5.414,5.414,0,0,1-3.9,1.436Zm.236-14.687a3.566,3.566,0,0,0,0,7.119,3.569,3.569,0,0,0,0-7.119Zm59.918,14.323h-2.765l2.627-5.82-4.6-10.484h2.765l3.072,7.5h.082l2.96-7.5h2.877l-7.014,16.3Zm-43.021-4.867a5.849,5.849,0,0,1-4.716-2.392,5.8,5.8,0,0,1-1.13-3.512,5.532,5.532,0,0,1,5.52-5.877h.011a5.527,5.527,0,0,1,5.033,3.748l.29.606-7.867,3.249a2.976,2.976,0,0,0,2.729,1.789c.04,0,.079,0,.119,0h.027a3.352,3.352,0,0,0,2.863-1.619l2.007,1.382A5.838,5.838,0,0,1,12508.935,13127.288Zm-.068-9.5c-.054,0-.1,0-.147,0a3.218,3.218,0,0,0-3.085,3.431l5.253-2.185A2.248,2.248,0,0,0,12508.866,13117.784Zm-29.633,9.5h-.018a5.89,5.89,0,0,1-.009-11.779h.118a5.758,5.758,0,0,1,4.081,1.686,5.919,5.919,0,0,1-4.173,10.095Zm-.272-9.463a3.568,3.568,0,1,0,0,7.136q.125,0,.249-.009a3.407,3.407,0,0,0,3.319-3.566,3.547,3.547,0,0,0-2.268-3.315A3.51,3.51,0,0,0,12478.961,13117.824Zm-12.614,9.463h-.018a5.89,5.89,0,0,1-.012-11.779h.119a5.744,5.744,0,0,1,4.08,1.686,5.919,5.919,0,0,1-4.17,10.095Zm-.273-9.463a3.592,3.592,0,0,0-2.616,1.138,3.552,3.552,0,0,0-.606,3.969,3.588,3.588,0,0,0,3.218,2.029q.126,0,.249-.009a3.4,3.4,0,0,0,3.319-3.566,3.563,3.563,0,0,0-3.563-3.561Zm-14.742,9.457c-.119,0-.232,0-.336-.007s-.226.007-.353.007a9.141,9.141,0,1,1,0-18.282c.126,0,.244,0,.354.007h.139a8.659,8.659,0,0,1,6.127,2.519l-1.757,1.757a6.377,6.377,0,0,0-4.436-1.784h-.1a6.638,6.638,0,0,0,0,13.275q.127.006.258.006a6.156,6.156,0,0,0,4.359-1.831,5.26,5.26,0,0,0,1.385-3.142H12451v-2.488h8.407a8.38,8.38,0,0,1,.126,1.549,8.262,8.262,0,0,1-2.155,5.851A8.443,8.443,0,0,1,12451.331,13127.281Zm89.514-.051a3.993,3.993,0,0,1-3.986-3.812,3.464,3.464,0,0,1,1.564-2.894,6.044,6.044,0,0,1,3.412-1h.023a5.739,5.739,0,0,1,2.673.662v-.168a2.494,2.494,0,0,0-2.475-2.242,2.4,2.4,0,0,0-.291.018c-.07-.006-.142-.009-.212-.009a2.46,2.46,0,0,0-2.151,1.268l-2.284-.956a4.807,4.807,0,0,1,4.31-2.648c.1,0,.2,0,.3.009l.053.026c3.136,0,5.243,1.923,5.243,4.785v6.651h-2.491v-1.384h-.083a3.635,3.635,0,0,1-3.078,1.692q-.105,0-.211-.006C12541.06,13127.227,12540.957,13127.23,12540.845,13127.23Zm1.42-5.626h-.11c-1.337,0-2.765.486-2.765,1.853,0,1.068,1.237,1.467,2.017,1.467l.057.026a3.134,3.134,0,0,0,3.042-2.766A4.614,4.614,0,0,0,12542.265,13121.6Zm-6.83,5.311h-2.574v-17.287h2.574v17.286Zm-13.275,0h-2.588v-17.287h6.2c.132-.009.262-.014.386-.014a5.379,5.379,0,0,1,0,10.759c-.141,0-.269,0-.39-.014h-3.608v6.555Zm3.608-8.987.057.026a2.958,2.958,0,1,0,0-5.916h-3.665v5.89Zm-23.937,8.987h-2.587v-17.287h2.587v17.286Z" transform="translate(-12385.979 -13085.43)"/>
    <path id="Path-7" data-name="Path" class="cls-5" d="M.615.1A2.766,2.766,0,0,0,.007,2.033V32.622a2.683,2.683,0,0,0,.65,1.936l.1.111L17.846,17.535V17.12L.712,0Z" transform="translate(12.822 10.33)"/>
    <path id="Path-8" data-name="Path" class="cls-6" d="M5.67,11.837,0,6.126V5.711L5.67,0l.124.083,6.79,3.844c1.936,1.092,1.936,2.89,0,4L5.822,11.768Z" transform="translate(30.667 21.739)"/>
    <path id="Path-9" data-name="Path" class="cls-7" d="M23.066,5.849,17.23,0,0,17.23a2.24,2.24,0,0,0,2.863.1l20.2-11.478" transform="translate(13.437 27.657)"/>
    <path id="Path-10" data-name="Path" class="cls-8" d="M23.066,11.958,2.863.481A2.226,2.226,0,0,0,0,.564l17.23,17.23Z" transform="translate(13.437 9.863)"/>
    <path id="Path-11" data-name="Path" class="cls-9" d="M22.9,0,2.863,11.409a2.3,2.3,0,0,1-2.766,0h0l-.1.1H0l.1.111h0a2.3,2.3,0,0,0,2.766,0L23.066.138Z" transform="translate(13.437 33.368)"/>
    <path id="Path-12" data-name="Path" class="cls-10" d="M.93,1.95A2.766,2.766,0,0,1,.322,0V.207a2.683,2.683,0,0,0,.65,1.936l.1-.1Z" transform="translate(12.507 42.744)"/>
    <path id="Path-13" data-name="Path" class="cls-10" d="M6.914,1.8,0,5.711l.124.138,6.79-3.858A2.42,2.42,0,0,0,8.38,0h0A2.572,2.572,0,0,1,6.914,1.8Z" transform="translate(36.337 27.657)"/>
    <path id="Path-14" data-name="Path" class="cls-11" d="M3.471.664,30.423,15.986a2.572,2.572,0,0,1,1.466,1.8h0a2.42,2.42,0,0,0-1.466-1.991L3.471.471C1.549-.636,0,.277,0,2.49V2.7C0,.484,1.549-.428,3.471.664Z" transform="translate(12.829 9.873)"/>
  </g>
</svg>