<svg xmlns="http://www.w3.org/2000/svg" width="26.667" height="40" viewBox="0 0 26.667 40">
  <defs>
    <style>
      .cls-1 {
        fill: #404040;
      }
    </style>
  </defs>
  <g id="svgexport-6_69_" data-name="svgexport-6 (69)" transform="translate(-10)">
    <path id="Path_7265" data-name="Path 7265" class="cls-1" d="M12,40H34.667a2,2,0,0,0,2-2V34a10.635,10.635,0,0,0-2.119-6.376,11.34,11.34,0,0,0,1.365-2.617l.008-.023a12.466,12.466,0,0,0,.745-4.317,12.629,12.629,0,0,0-1.309-5.16A13.2,13.2,0,0,1,34,10V7.48A1.993,1.993,0,0,0,32.667,4h-.306c-1.647-2.439-5.136-4-9.027-4s-7.382,1.56-9.027,4H14a2,2,0,0,0-.667,3.877V10a13.2,13.2,0,0,1-1.358,5.507,12.629,12.629,0,0,0-1.309,5.16,12.493,12.493,0,0,0,.745,4.317l.013.031a11.479,11.479,0,0,0,1.058,2.159A10.633,10.633,0,0,0,10,34v4A2,2,0,0,0,12,40ZM27.278,23.411a.671.671,0,0,1-.611-.667v-.709a9.429,9.429,0,0,0,1.571-.777.652.652,0,0,0,.242-.159,9.351,9.351,0,0,0,3.285-3.775c.139.224.275.438.4.637l.249.394A14.471,14.471,0,0,1,34.6,24.7a9.995,9.995,0,0,1-.96,1.875,10.611,10.611,0,0,0-6.367-3.167Zm-3.945-2.078a8.049,8.049,0,0,1-2.4-.365l-.015-.005a7.9,7.9,0,0,1-1.585-.692v-.938A2.667,2.667,0,0,1,22,16.667h2.667a2.667,2.667,0,0,1,2.667,2.667v.911a7.957,7.957,0,0,1-4,1.089Zm-9.906,4.839a9.982,9.982,0,0,1-.7-1.453,14.478,14.478,0,0,1,2.193-6.365l.249-.394.033-.051A9.263,9.263,0,0,0,20,22.056v.691a.671.671,0,0,1-.613.667,10.605,10.605,0,0,0-5.96,2.759Zm4.5-14.839h11.48a13.835,13.835,0,0,0,1.511,4.515,7.933,7.933,0,0,1-2.251,3.434,4,4,0,0,0-4-3.949H22A4,4,0,0,0,18,19.3a8.007,8.007,0,0,1-1.981-2.733,14.41,14.41,0,0,0,1.908-5.237ZM14,5.333H32.667a.667.667,0,0,1,0,1.333H14a.667.667,0,0,1,0-1.333Zm7.333,17.413v-.3a9.377,9.377,0,0,0,1.333.192c0,9.06,1.333,9.06,1.333,0a9.225,9.225,0,0,0,1.333-.2v.307C25.34,23.765,21.326,23.766,21.333,22.747Z" transform="translate(0 0)"/>
    <path id="Path_7266" data-name="Path 7266" class="cls-1" d="M30.437,27.271a1.222,1.222,0,0,1-2.021,0A.81.81,0,0,0,27.2,28.345a2.824,2.824,0,0,0,4.446,0,.81.81,0,0,0-1.212-1.073Z" transform="translate(-6.092 -9.201)"/>
  </g>
</svg>