<svg xmlns="http://www.w3.org/2000/svg" width="9.823" height="12.206" viewBox="0 0 9.823 12.206">
  <defs>
    <style>
      .cls-1 {
        fill: #848484;
      }
    </style>
  </defs>
  <g id="Group_1643" data-name="Group 1643" transform="translate(-349.599 -232.775)">
    <path id="Path_2089" data-name="Path 2089" class="cls-1" d="M49.021,33.324l-4.57-3.446a.341.341,0,0,0-.411,0l-4.57,3.446a.341.341,0,0,0-.136.273v5.8a.341.341,0,0,0,.341.341h9.141a.341.341,0,0,0,.341-.341V33.6A.342.342,0,0,0,49.021,33.324ZM44.8,39.057H43.687V36.582H44.8Zm3.67,0H45.487V36.24a.341.341,0,0,0-.341-.341h-1.8A.341.341,0,0,0,43,36.24v2.817H40.017V33.766l4.229-3.189,4.229,3.189v5.291Z" transform="translate(310.265 202.966)"/>
    <path id="Path_2091" data-name="Path 2091" class="cls-1" d="M54.963,237.385a.341.341,0,0,0-.483.483l.12.12H47.822l.12-.12a.341.341,0,1,0-.483-.483l-.7.7a.341.341,0,0,0,0,.483l.7.7a.341.341,0,1,0,.483-.483l-.12-.12H54.6l-.12.12a.341.341,0,0,0,.483.483l.7-.7a.341.341,0,0,0,0-.483Z" transform="translate(303.299 5.608)"/>
  </g>
</svg>