<svg xmlns="http://www.w3.org/2000/svg" width="40" height="40.004" viewBox="0 0 40 40.004">
  <defs>
    <style>
      .cls-1 {
        fill: #404040;
      }
    </style>
  </defs>
  <g id="svgexport-6_82_" data-name="svgexport-6 (82)" transform="translate(0 0.001)">
    <path id="Path_7323" data-name="Path 7323" class="cls-1" d="M38.925,17.4l0,0L22.6,1.079a3.682,3.682,0,0,0-5.208,0L1.086,17.388l-.016.017A3.681,3.681,0,0,0,3.52,23.679q.056.005.114.005h.65V35.694A4.315,4.315,0,0,0,8.594,40h6.384a1.172,1.172,0,0,0,1.172-1.172V29.416a1.969,1.969,0,0,1,1.966-1.966h3.766a1.969,1.969,0,0,1,1.966,1.966v9.415A1.172,1.172,0,0,0,25.021,40h6.384a4.315,4.315,0,0,0,4.31-4.31V23.685h.6A3.683,3.683,0,0,0,38.925,17.4Zm0,0" transform="translate(0)"/>
  </g>
</svg>