<svg xmlns="http://www.w3.org/2000/svg" width="14" height="14" viewBox="0 0 14 14"><g id="icon" transform="translate(4.915 0.915)"><path id="Path_539" data-name="Path 539" d="M7,0a7,7,0,1,0,7,7A7,7,0,0,0,7,0ZM8.457,10.849q-.54.213-.862.325a2.275,2.275,0,0,1-.748.112,1.49,1.49,0,0,1-1.017-.319,1.031,1.031,0,0,1-.362-.81,2.942,2.942,0,0,1,.027-.391c.018-.133.047-.282.087-.45l.451-1.593c.04-.153.074-.3.1-.433a1.921,1.921,0,0,0,.04-.375.578.578,0,0,0-.126-.425.714.714,0,0,0-.482-.119,1.264,1.264,0,0,0-.359.053c-.121.037-.227.071-.313.1l.119-.491q.443-.18.847-.309A2.5,2.5,0,0,1,6.625,5.6a1.463,1.463,0,0,1,1,.314,1.043,1.043,0,0,1,.352.815q0,.1-.024.366a2.447,2.447,0,0,1-.09.481L7.417,9.163c-.037.127-.069.273-.1.436a2.306,2.306,0,0,0-.043.371.533.533,0,0,0,.142.431.793.793,0,0,0,.49.115,1.421,1.421,0,0,0,.371-.057,2.109,2.109,0,0,0,.3-.1ZM8.377,4.4a1.071,1.071,0,0,1-.756.292A1.082,1.082,0,0,1,6.863,4.4.931.931,0,0,1,6.548,3.7a.94.94,0,0,1,.316-.709,1.074,1.074,0,0,1,.759-.295,1.062,1.062,0,0,1,.756.295.955.955,0,0,1,0,1.416Z" transform="translate(-4.915 -0.915)" fill="#848484"></path></g></svg>