<?xml version="1.0" encoding="utf-8"?>
<!-- Generator: Adobe Illustrator 24.2.3, SVG Export Plug-In . SVG Version: 6.00 Build 0)  -->
<svg version="1.1" id="Layer_1" xmlns="http://www.w3.org/2000/svg" xmlns:xlink="http://www.w3.org/1999/xlink" x="0px" y="0px"
	 viewBox="0 0 20 20" style="enable-background:new 0 0 20 20;" xml:space="preserve">
<style type="text/css">
	.st0{fill:#006C35;}
	.st1{fill:#FFFFFF;}
</style>
<g>
	<path class="st0" d="M14.68,14.68h-1.21v0.19c0.01,0,0.02,0.01,0.02,0.01s0.06,0.02,0.1,0.06h0.39c0.02-0.06,0.07-0.09,0.14-0.09
		c0.06,0,0.11,0.03,0.14,0.09h0.42C14.65,14.86,14.66,14.77,14.68,14.68z M14.68,14.68h-1.21v0.19c0.01,0,0.02,0.01,0.02,0.01
		s0.06,0.02,0.1,0.06h0.39c0.02-0.06,0.07-0.09,0.14-0.09c0.06,0,0.11,0.03,0.14,0.09h0.42C14.65,14.86,14.66,14.77,14.68,14.68z
		 M10,0C4.48,0,0,4.48,0,10s4.48,10,10,10c5.52,0,10-4.48,10-10S15.52,0,10,0z M14.82,15.12c-0.06,0-0.1-0.03-0.13-0.07h-0.45
		c-0.02,0.06-0.07,0.08-0.14,0.08c-0.06,0-0.12-0.02-0.14-0.08H13.6c-0.02,0.04-0.07,0.1-0.18,0.16c-0.38-0.23-0.06-0.33-0.06-0.33
		c0.01,0,0.01,0,0.02,0v-0.19H5.75c0,0-0.43-0.02-0.81-0.33h8.45v-0.14c-0.01,0-0.02,0-0.02,0s-0.32-0.1,0.06-0.33
		c0.38,0.23,0.06,0.33,0.06,0.33c-0.01,0-0.01,0-0.02,0v0.14h1.25c0,0,0.28-0.01,0.33,0.26C15.1,14.87,15.04,15.16,14.82,15.12z
		 M13.47,14.68v0.19c0.01,0,0.02,0.01,0.02,0.01s0.06,0.02,0.1,0.06h0.39c0.02-0.06,0.07-0.09,0.14-0.09c0.06,0,0.11,0.03,0.14,0.09
		h0.42c-0.01-0.08,0-0.17,0.02-0.25H13.47z"/>
	<g>
		<path class="st1" d="M16.07,6.86c-0.01-0.11-0.06-0.34-0.29-0.47c-0.03-0.02-0.05-0.06-0.05-0.11c0.02-0.1,0.09-0.14,0.16-0.08
			c0.08,0.08,0.26,0.27,0.2,0.66C16.09,6.88,16.07,6.88,16.07,6.86z"/>
		<path class="st1" d="M14.44,9.85c0,0-0.18-0.01-0.04-0.12c0.14-0.11,0.85-0.42,0.91-0.38c0.05,0.04,0.03,0.08-0.01,0.12
			C15.26,9.51,14.44,9.85,14.44,9.85z"/>
		<path class="st1" d="M3.51,8.08c0,0-0.19,0.01-0.05-0.12C3.59,7.84,4.3,7.44,4.35,7.47c0.06,0.03,0.04,0.07,0,0.12
			C4.31,7.64,3.51,8.08,3.51,8.08z"/>
		<path class="st1" d="M7.55,6.44C7.52,6.47,6.92,6.8,6.92,6.8s-0.04,0-0.06-0.02C6.85,6.77,6.85,6.76,6.85,6.74
			C6.86,6.73,6.87,6.72,6.89,6.7c0.1-0.1,0.63-0.39,0.67-0.36C7.6,6.37,7.58,6.4,7.55,6.44z"/>
		<path class="st1" d="M13.47,9.45c-0.04-0.01-0.08-0.05-0.08-0.1c0-0.05,0.02-0.09,0.13-0.08c0.22,0.01,0.17,0.55,0.17,0.55
			s-0.02,0.03-0.03,0.01C13.65,9.8,13.7,9.52,13.47,9.45z"/>
		<path class="st1" d="M8.92,5.1C8.87,5.09,8.84,5.05,8.84,5c0-0.05,0.02-0.09,0.13-0.08c0.22,0.01,0.17,0.55,0.17,0.55
			S9.12,5.5,9.11,5.48C9.09,5.46,9.14,5.17,8.92,5.1z"/>
		<path class="st1" d="M16.57,5.58c0,0,0.12,0.11,0.15,0.04c0.03-0.07-0.05-0.79-0.3-0.79c-0.25,0.01-0.05,1.49-0.01,1.8
			c0.04,0.31,0.17,1.76,0.11,1.96c0,0.02-0.01,0.03-0.01,0.05c-0.01-0.26-0.21-0.66-0.78-1.18c0,0-0.01,0-0.01-0.01
			c-0.04-1-0.17-1.84-0.17-1.86c0.01,0,0.11,0.04,0.13-0.03c0.01-0.02,0.01-0.07,0-0.14c0.02-0.02,0.04-0.04,0.06-0.05
			c0.32-0.34,0.33-0.57,0.33-0.57s-0.16,0.14-0.43,0.37c-0.04-0.17-0.12-0.33-0.24-0.32c-0.11,0-0.13,0.3-0.12,0.65
			c-0.19,0.17-0.4,0.36-0.62,0.56c-0.03-0.27-0.05-0.45-0.05-0.45s0.11,0.04,0.13-0.02c0.03-0.07-0.04-0.73-0.29-0.72
			c-0.13,0-0.13,0.42-0.09,0.86c-0.01-0.01-0.03-0.03-0.04-0.05c-0.23-0.23-0.55-0.51-0.65-0.36c-0.01-0.03-0.02-0.06-0.03-0.09
			c-0.2-0.68-0.42-0.35-0.36,0.3c0.03,0.34,0.08,1.07,0.12,1.72c-0.2,0.2-0.39,0.4-0.55,0.58c-0.22-0.23-0.53-0.52-0.83-0.82
			c-0.03-0.46-0.1-1.24-0.13-1.44c0,0,0.29,0.3,0.1-0.38c-0.2-0.68-0.42-0.35-0.36,0.3c0.02,0.2,0.05,0.66,0.08,1.2
			c-0.18-0.2-0.34-0.39-0.43-0.55c0,0,0.35,0.11,0.07-0.19c-0.27-0.3-0.7-0.56-0.48,0.02c0.09,0.24,0.45,0.66,0.85,1.1
			c0.05,0.85,0.1,1.8,0.15,2.26c0.01,0.09,0.12,0.09,0.13,0c0.06-0.49,0.05-1.51,0.03-1.93c0.22,0.24,0.44,0.47,0.61,0.65
			c-0.13,0.16-0.23,0.31-0.28,0.41c-0.08,0.16-0.11,0.46,0.01,0.6c-0.04,0.36-0.03,1.02,0.58,0.9c0.08-0.02,0.16-0.08,0.19-0.17
			c0.06-0.15,0.09-0.37,0.1-0.39c0.01-0.02,0.31-0.81,0.5-0.26c0.1,0.59,0.95,0.62,1.06-0.01c0.06-0.36-0.02-1.47-0.1-2.35
			c0.24,0.26,0.53,0.58,0.72,0.79c0.03,0.62,0.06,1.36,0.06,1.68c0,0.06,0.04,0.11,0.09,0.11c0.03,0,0.06-0.02,0.07-0.09
			c0.06-0.44,0.07-0.94,0.06-1.43c0.17,0.19,0.65,0.76,0.68,1.09c-0.12,0.2-0.42,0.48-1.27,0.88c0.19,0.18,1.56-0.2,1.63-1.29
			C16.85,7.44,16.57,5.58,16.57,5.58z M14.37,5.86C14.38,5.93,14.39,6,14.4,6.07c-0.07-0.09-0.12-0.16-0.14-0.2
			C14.26,5.87,14.33,5.88,14.37,5.86z M13.71,5.59c0.13,0.26,0.42,0.61,0.6,0.76c0,0,0.01,0.01,0.01,0.01
			c-0.22,0.2-0.44,0.41-0.65,0.62c-0.04-0.47-0.09-1.19-0.12-1.39C13.54,5.61,13.7,5.76,13.71,5.59z M12.83,8.25
			c0.09,0.11,0.15,0.19,0.15,0.22C13,8.69,12.59,8.8,12.49,8.72C12.46,8.69,12.59,8.52,12.83,8.25z M14.64,9.07
			c-0.03,0.1-0.55,0.47-0.82-0.33c-0.4-0.49-0.81,0.68-0.85,0.85c-0.04,0.16-0.36,0.38-0.51-0.47c0.06,0.03,0.15,0.03,0.27-0.02
			c0.49-0.2,0.65-0.56,0.35-0.99c-0.02-0.02-0.03-0.05-0.05-0.07c0.12-0.13,0.25-0.27,0.4-0.42c0.03,0.43,0.07,0.76,0.1,0.81
			c0.15,0,0.17-0.7,0.15-1.07c0.24-0.24,0.5-0.5,0.78-0.77c0.01,0.04,0.01,0.08,0.01,0.1C14.48,6.69,14.66,8.97,14.64,9.07z
			 M14.68,6.42c0-0.01,0-0.03,0-0.04c0.2-0.19,0.4-0.39,0.61-0.58c0.03,0.36,0.08,0.72,0.09,0.86c0.01,0.08,0.02,0.27,0.04,0.52
			C15.12,6.89,14.87,6.63,14.68,6.42z"/>
		<path class="st1" d="M12.43,7.38c-0.02-0.01-0.03-0.05-0.01-0.06c0.14-0.11,0.73-0.58,0.9-0.57c0.19,0.01-0.6,0.58-0.84,0.64
			C12.46,7.39,12.45,7.39,12.43,7.38z"/>
		<path class="st1" d="M12.28,5.93c0,0.01,0,0.01-0.01,0.01C12.2,5.9,12,5.8,12.23,5.67c0.28-0.16,0.78-0.39,0.87-0.33
			c0.09,0.06-0.71,0.4-0.8,0.44C12.23,5.8,12.25,5.88,12.28,5.93z"/>
		<path class="st1" d="M12.84,5.11c0,0.02-0.02,0.03-0.03,0.02c-0.06-0.03-0.23-0.1-0.26,0.29c-0.02,0.05-0.3-0.35-0.27-0.4
			c0.03-0.05,0.21,0.04,0.22,0.13c0.01,0.03,0.04,0.02,0.04,0c0.01-0.01,0.08-0.28,0.17-0.22C12.79,4.98,12.84,5.05,12.84,5.11z"/>
		<path class="st1" d="M7.74,8.04c0,0.02-0.02,0.03-0.03,0.02c-0.06-0.03-0.23-0.1-0.26,0.29C7.42,8.4,7.14,8,7.17,7.95
			C7.2,7.91,7.38,7.99,7.4,8.08c0.01,0.03,0.04,0.02,0.04,0C7.45,8.07,7.52,7.8,7.61,7.86C7.69,7.91,7.74,7.98,7.74,8.04z"/>
		<path class="st1" d="M12.52,6.2c-0.02,0.07-0.08,0.34,0.04,0.31c0.01,0,0.02-0.01,0.03-0.03c0.04-0.09,0.03-0.36,0.1-0.34
			c0.08,0.01,0.03,0.27,0.09,0.31c0.06,0.04,0.11-0.06,0.11-0.28c-0.01-0.21,0.22,0.16,0.05,0.48c0,0.01-0.01,0.01-0.02,0.02
			c-0.1,0.04-0.17-0.1-0.21-0.09c-0.04,0.01-0.09,0.03-0.11,0.09c-0.02,0.05-0.22-0.04-0.19-0.28c0.03-0.13,0.06-0.19,0.09-0.19
			C12.52,6.18,12.52,6.19,12.52,6.2z"/>
		<path class="st1" d="M9.35,7.06C9.33,7.14,9.27,7.41,9.4,7.37c0.01,0,0.02-0.01,0.03-0.03C9.47,7.26,9.46,6.99,9.53,7
			c0.08,0.01,0.03,0.27,0.09,0.31c0.06,0.04,0.11-0.06,0.11-0.28C9.72,6.82,9.95,7.19,9.77,7.51c0,0.01-0.01,0.01-0.02,0.02
			c-0.1,0.04-0.17-0.1-0.21-0.09C9.5,7.44,9.45,7.47,9.43,7.52C9.42,7.57,9.21,7.48,9.25,7.24C9.28,7.11,9.3,7.04,9.34,7.04
			C9.35,7.04,9.36,7.06,9.35,7.06z"/>
		<path class="st1" d="M8.93,5.6C8.91,5.67,8.84,5.94,8.97,5.91C8.98,5.9,8.99,5.89,9,5.88c0.04-0.09,0.03-0.36,0.1-0.34
			C9.18,5.55,9.13,5.8,9.19,5.84C9.25,5.88,9.3,5.78,9.3,5.57C9.29,5.36,9.52,5.72,9.34,6.04c0,0.01-0.01,0.01-0.02,0.02
			c-0.1,0.04-0.17-0.1-0.21-0.09C9.08,5.97,9.02,6,9.01,6.05C8.99,6.1,8.78,6.01,8.82,5.77c0.03-0.13,0.06-0.19,0.09-0.19
			C8.92,5.58,8.93,5.59,8.93,5.6z"/>
		<path class="st1" d="M14.22,7.69c-0.25-0.04-0.12,0.38-0.12,0.38c-0.25,0.39-0.59,0.4-0.55,0.46c0.47,0.01,0.59-0.2,0.64-0.3
			c0.05-0.1,0.1-0.07,0.2-0.06C14.54,8.12,14.48,7.74,14.22,7.69z M14.23,7.89c-0.02,0.01,0,0.04-0.01,0.07
			c-0.03,0.05-0.08,0-0.08,0c-0.04-0.1-0.01-0.18,0.03-0.18c0.04,0,0.04,0.04,0.05,0.05c0.02,0.01,0.02,0,0.02,0.02
			C14.25,7.88,14.25,7.88,14.23,7.89z M14.29,8.08c-0.05-0.06-0.01-0.1,0.02-0.09c-0.01-0.03,0-0.08,0-0.08s0.05-0.06,0.09,0
			C14.44,7.96,14.37,8.16,14.29,8.08z"/>
		<path class="st1" d="M3.91,6.93C3.66,6.88,3.8,7.31,3.8,7.31C3.55,7.7,3.2,7.71,3.24,7.76c0.47,0.01,0.59-0.2,0.64-0.3
			c0.05-0.1,0.1-0.07,0.2-0.06C4.23,7.36,4.17,6.97,3.91,6.93z M3.92,7.12c-0.02,0.01,0,0.04-0.01,0.07c-0.03,0.05-0.08,0-0.08,0
			C3.8,7.1,3.83,7.01,3.87,7.01c0.04,0,0.04,0.04,0.05,0.05c0.02,0.01,0.02,0,0.02,0.02C3.94,7.11,3.94,7.12,3.92,7.12z M3.98,7.31
			c-0.05-0.06,0-0.1,0.02-0.09C3.98,7.19,4,7.14,4,7.14s0.05-0.06,0.09,0C4.13,7.2,4.06,7.4,3.98,7.31z"/>
		<path class="st1" d="M11.67,9.08c0,0-0.31,0.21-0.11,0.45c0.09,0.06,0.18-0.07,0.07-0.18c-0.04-0.07-0.02-0.16,0.04-0.21
			C11.74,9.08,11.67,9.08,11.67,9.08z"/>
		<path class="st1" d="M10.88,9.28c0,0-0.19,0.05-0.11-0.06c0.08-0.11,0.31-0.19,0.35-0.06c0.04,0.13-0.33,0.27-0.28,0.33
			s0.21,0.1,0.48-0.15c0,0.23-0.39,0.44-0.55,0.26C10.62,9.43,10.88,9.28,10.88,9.28z"/>
		<path class="st1" d="M11,6.77c0,0-0.08,0.07-0.1,0.05c-0.03-0.01-0.01-0.23,0.16-0.23c0.17,0,0.14,0.5-0.3,0.53
			c-0.04-0.01-0.04-0.06,0-0.07C10.8,7.06,11.05,6.94,11,6.77z"/>
		<path class="st1" d="M11.06,4.85c0,0-0.44,0.19-0.3,0.55c0.15,0.21,0.36,0.09,0.37-0.07c-0.03-0.09-0.17,0.04-0.22,0.02
			c-0.05-0.02-0.1-0.22,0.17-0.43C11.13,4.89,11.08,4.84,11.06,4.85z"/>
		<path class="st1" d="M3.57,4.97c0,0-0.44,0.19-0.3,0.55c0.15,0.21,0.36,0.09,0.37-0.07C3.62,5.35,3.47,5.49,3.42,5.47
			c-0.05-0.02-0.1-0.22,0.17-0.43C3.63,5.01,3.59,4.96,3.57,4.97z"/>
		<path class="st1" d="M3.57,8.26c0,0-0.44,0.19-0.3,0.55C3.43,9.02,3.64,8.9,3.65,8.74C3.62,8.64,3.48,8.78,3.43,8.76
			C3.38,8.75,3.33,8.55,3.6,8.34C3.64,8.3,3.6,8.25,3.57,8.26z"/>
		<path class="st1" d="M8.84,9.23c0,0,0.02-0.19,0.16-0.11c0.14,0.09,0.09,0.26-0.1,0.23c-0.12,0.01,0.03,0.38,0,0.43
			C8.89,9.84,8.76,9.55,8.75,9.37C8.77,9.25,8.84,9.23,8.84,9.23z"/>
		<path class="st1" d="M11.49,7.8c0,0-0.08-0.24,0.06-0.26c0.1,0.09,0.05,0.24,0.05,0.25c0.01,0,0.09,0.05,0.04,0.06
			c-0.05,0.01-0.06-0.02-0.06-0.01c0,0.01-0.05,0.37-0.44,0.3c-0.07,0-0.04-0.05,0-0.05S11.53,8.02,11.49,7.8z"/>
		<path class="st1" d="M5.58,5.32c0,0,0.03,0.16,0.08,0.15c0.05-0.01,0.01-0.21,0.02-0.22c0.02-0.01,0.05,0.09,0.05,0.18
			c0.04,0.04,0.08,0.03,0.08-0.02c0-0.05-0.03-0.16,0.01-0.17c0.05-0.01,0.1,0.19,0.04,0.24C5.82,5.53,5.76,5.52,5.74,5.5
			c-0.03,0-0.06,0.02-0.07,0.03C5.66,5.55,5.5,5.55,5.54,5.33C5.55,5.27,5.58,5.31,5.58,5.32z"/>
		<path class="st1" d="M7.03,5.29C7,5.26,6.98,5.22,6.97,5.18C6.96,5.12,6.98,5.06,7.1,5.17c0.2,0.18,0.18,0.49,0.16,0.53
			c-0.01,0.04-0.04,0.01-0.04,0C7.23,5.69,7.18,5.41,7.03,5.29z"/>
		<path class="st1" d="M5.73,5.87C5.7,5.85,5.68,5.81,5.68,5.77C5.67,5.71,5.68,5.66,5.79,5.76c0.18,0.16,0.16,0.46,0.15,0.49
			c-0.01,0.03-0.04,0.01-0.03,0C5.91,6.25,5.87,5.99,5.73,5.87z"/>
		<path class="st1" d="M8.09,5.76c-0.01,0.02-0.1,0.13-0.11,0.03C8.21,5.52,8.05,5.11,7.91,5C7.76,4.88,7.64,5.14,7.79,5.27
			c0.18,0.15-0.4,0.53-0.4,0.53S7.36,5.85,7.41,5.86C7.66,5.81,7.86,5.5,7.91,5.41c0.05-0.1,0.08-0.03,0.06,0.06
			C7.81,5.74,7.88,5.98,7.99,5.99C8.1,6,8.1,5.74,8.09,5.76z M7.91,5.17C7.89,5.19,7.85,5.14,7.82,5.1s0.06-0.03,0.06-0.03
			C7.93,5.09,7.94,5.16,7.91,5.17z"/>
		<path class="st1" d="M10.55,5.28c0,0,0.26,0.13,0.08-0.09c-0.18-0.23-0.4-0.42-0.35-0.03c0.06,0.39,0.39,0.99,0.33,1.21
			c-0.15,0.2-0.78,0.16-0.78-1.03c0-0.36-0.16-0.48-0.26-0.27c-0.1,0.21,0.1,0.4,0.1,0.49C9.69,5.63,9.74,6.22,9.53,6.4
			c-0.21,0.17-0.94,0.42-0.82-0.5c0.13-0.44,0.09-0.6,0.09-0.6S8.51,5.5,8.3,6.23C8.08,6.96,7.65,6.8,7.74,5.84
			c0,0-0.31,0.63,0.06,0.98C8.06,7,8.34,6.81,8.41,6.18C8.45,5.86,8.6,5.7,8.6,5.7S8.31,6.65,8.79,6.84
			c0.47,0.19,0.93-0.19,0.94-0.63c0.04-0.07,0.08,0.03,0.1,0.2c0.03,0.17,0.32,0.41,0.59,0.35c0.27-0.06,0.55-0.36,0.23-1.02
			C10.53,5.4,10.54,5.37,10.55,5.28z"/>
		<path class="st1" d="M11.78,8.33l-2-0.01c0,0,0.54-0.44,0.77-0.41c0,0.13,0.07,0.24,0.1,0.23c0.03-0.01,0.08-0.15,0.06-0.25
			c0.12,0.04,0.62-0.16,0.33-0.47c-0.29-0.31-0.6-0.33-0.73-0.09c-0.13,0.24,0.06,0.37,0.05,0.39c-0.08-0.03-1.18,0.43-1.05,0.88
			h1.16c0,0,0.08,0.04,0,0.08c-0.11-0.02-0.8,0.18-0.87,0.61C9.39,9.13,9.2,8.85,9.15,8.29C9.13,8.07,9.09,7.85,9.02,7.65
			C8.78,6.92,8.64,6.87,8.64,6.87S8.46,7.11,8.61,7.39C8.72,7.59,8.9,8.03,9,8.43C8.82,8.61,8.07,9.3,7.7,9.38
			C7.59,9.41,7.52,9.37,7.49,9.29c0.21-0.15,0.43-0.34,0.65-0.57c0.58-0.46,0.08-1.18,0.08-1.18s0.22,0.07,0.01-0.2
			C8.03,7.07,7.68,6.69,8.09,7.99c0.07,0.19,0.03,0.47-0.64,0.94C7.47,8.72,7.54,8.5,7.6,8.41c0,0-0.31,0.24-0.33,0.64
			C6.9,9.29,6.38,9.57,5.66,9.91c0,0,0.7,0.14,1.66-0.5C7.33,9.44,7.35,9.47,7.36,9.5c0.08,0.18,0.26,0.26,0.43,0.2
			c0.41-0.15,1.08-0.57,1.26-1.05C9.06,8.74,9.07,8.83,9.08,8.9c0.02,0.45,0.54,1,1.13,0.94c0.03,0,0.06-0.02,0.09-0.04
			c0.12-0.12,0.01-0.35-0.19-0.36c-0.08-0.01-0.23-0.02-0.39-0.09c0.05-0.11,0.23-0.34,0.93-0.47C11.59,8.7,11.79,8.58,11.78,8.33z
			 M10.45,7.44c0.02-0.06,0.1-0.09,0.19-0.06c0.09,0.03,0.14,0.11,0.13,0.17c-0.02,0.06-0.11,0.13-0.2,0.1
			C10.48,7.62,10.43,7.5,10.45,7.44z"/>
		<path class="st1" d="M6.86,6.78C6.85,6.77,6.85,6.76,6.85,6.74c0,0,0,0,0,0.01C6.86,6.76,6.86,6.77,6.86,6.78z"/>
		<path class="st1" d="M6.05,6.71C5.78,6.78,5.48,6.53,5.46,6.37C5.43,6.2,5.4,6.1,5.35,6.17C5.35,6.45,5.16,6.71,4.9,6.81
			c0.11,1.11,0,2.1-0.08,2C4.77,8.74,4.69,7.78,4.63,6.85c-0.07,0-0.15-0.02-0.22-0.05c-0.46-0.19-0.2-1.1-0.19-1.14
			C4.22,5.67,4.08,5.83,4.04,6.14C3.97,6.77,3.69,6.97,3.42,6.78C3.06,6.43,3.37,5.8,3.37,5.8C3.27,6.76,3.71,6.92,3.93,6.19
			c0.22-0.73,0.5-0.94,0.5-0.94s0.04,0.16-0.09,0.6C4.28,6.31,4.42,6.48,4.61,6.51C4.59,6.03,4.56,5.6,4.55,5.34
			C4.54,4.55,4.7,4.8,4.9,5.26c0.2,0.46-0.1,0.3-0.1,0.3S4.79,5.77,4.87,6.5c0.12-0.03,0.23-0.09,0.29-0.14
			c0.21-0.17,0.16-0.76,0.16-0.85c-0.01-0.09-0.2-0.28-0.1-0.49c0.1-0.21,0.26-0.09,0.26,0.27c0,1.19,0.63,1.23,0.78,1.03
			C6.3,6.1,5.97,5.51,5.91,5.12C5.85,4.73,6.08,4.92,6.26,5.15c0.18,0.23-0.08,0.09-0.08,0.09C6.16,5.33,6.16,5.37,6.28,5.69
			C6.6,6.35,6.32,6.65,6.05,6.71z"/>
		<path class="st1" d="M7.76,6.92c0-0.04-0.07-0.1-0.09-0.02C7.63,7.57,7.32,7.44,7.27,7.26C7.3,7.12,7.25,6.96,7.18,7.03
			C7.12,7.18,7.04,7.3,6.94,7.39C6.93,7.21,6.9,7.01,6.86,6.78C6.85,6.77,6.85,6.76,6.85,6.74C6.71,5.92,6.67,5.71,6.72,5.59
			c0,0,0.27,0.21,0.11-0.3c-0.16-0.51-0.57-0.76-0.28,1c0.09,0.53,0.14,0.93,0.17,1.25C6.63,7.57,6.55,7.57,6.5,7.53
			C6.38,7.41,6.45,7.13,6.39,7.2C6.33,7.27,5.93,7.64,5.9,7.54C5.88,7.45,5.61,6.93,5.26,7.23c-0.65,0.75,0.16,1,0.57,0.73
			c0.03,0.45-0.88,0.93-1.61,1.25C4.1,8.98,4.09,8.57,4.29,7.92c0,0-0.57,0.75-0.35,1.41C3.58,9.47,3.31,9.56,3.31,9.56
			s0.14,0.1,0.75-0.01c0.46,0.57,2.09,0.24,2.7-0.81c0,0,0.21-0.24,0.21-0.99C7.05,7.63,7.1,7.5,7.12,7.5
			c0.05-0.01,0.11,0.33,0.44,0.18C7.9,7.52,7.76,6.96,7.76,6.92z M5.61,7.68c-0.08,0.05-0.26,0.02-0.34,0
			c-0.02,0-0.03-0.03-0.02-0.06c0.04-0.08,0.15-0.22,0.36-0.06C5.65,7.58,5.65,7.65,5.61,7.68z M6.31,8.82
			c-0.29,0.24-1.28,0.8-1.82,0.62c1.77-0.81,1.55-1.5,1.55-1.57c0.01-0.07,0.12-0.23,0.21-0.24c0.19,0.22,0.35,0.28,0.47,0.27
			C6.72,8.37,6.58,8.6,6.31,8.82z"/>
	</g>
	<g>
		<path class="st1" d="M15.05,14.6c-0.05-0.27-0.33-0.26-0.33-0.26h-1.25v-0.14c0.01,0,0.01,0,0.02,0c0,0,0.32-0.1-0.06-0.33
			c-0.38,0.23-0.06,0.33-0.06,0.33s0.01,0,0.02,0v0.14H4.93c0.39,0.31,0.81,0.33,0.81,0.33h7.63v0.19c0,0-0.01,0-0.02,0
			c0,0-0.32,0.1,0.06,0.33c0.1-0.06,0.16-0.12,0.18-0.16h0.37c0.02,0.06,0.07,0.08,0.14,0.08c0.06,0,0.12-0.02,0.14-0.08h0.45
			c0.03,0.04,0.07,0.07,0.13,0.07C15.04,15.16,15.1,14.87,15.05,14.6z M14.66,14.93h-0.42c-0.02-0.06-0.07-0.09-0.14-0.09
			c-0.06,0-0.11,0.03-0.14,0.09h-0.39c-0.04-0.04-0.1-0.06-0.1-0.06s-0.01,0-0.02-0.01v-0.19h1.21
			C14.66,14.77,14.65,14.86,14.66,14.93z"/>
	</g>
</g>
</svg>
