<svg xmlns="http://www.w3.org/2000/svg" width="9.146" height="12.627" viewBox="0 0 9.146 12.627">
  <defs>
    <style>
      .cls-1 {
        fill: #848484;
      }
    </style>
  </defs>
  <g id="Group_1642" data-name="Group 1642" transform="translate(-350.854 -210.925)">
    <g id="Group_1639" data-name="Group 1639" transform="translate(350.854 210.925)">
      <g id="Group_1638" data-name="Group 1638">
        <path id="Path_2233" data-name="Path 2233" class="cls-1" d="M75.146,0a4.578,4.578,0,0,0-4.573,4.573c0,3.129,4.092,7.723,4.267,7.917a.412.412,0,0,0,.613,0c.174-.194,4.267-4.788,4.267-7.917A4.578,4.578,0,0,0,75.146,0Zm0,11.584C73.769,9.948,71.4,6.721,71.4,4.573a3.749,3.749,0,1,1,7.5,0C78.9,6.721,76.524,9.948,75.146,11.584Z" transform="translate(-70.573)"/>
      </g>
    </g>
    <g id="Group_1641" data-name="Group 1641" transform="translate(353.126 213.197)">
      <g id="Group_1640" data-name="Group 1640">
        <path id="Path_2234" data-name="Path 2234" class="cls-1" d="M165.009,92.134a2.3,2.3,0,1,0,2.3,2.3A2.3,2.3,0,0,0,165.009,92.134Zm0,3.778a1.477,1.477,0,1,1,1.477-1.477A1.479,1.479,0,0,1,165.009,95.912Z" transform="translate(-162.708 -92.134)"/>
      </g>
    </g>
  </g>
</svg>