<svg xmlns="http://www.w3.org/2000/svg" width="27.892" height="32" viewBox="0 0 27.892 32"><g id="Group_6459" data-name="Group 6459" transform="translate(-1107.108 -209)"><g id="money-bag" transform="translate(1107.108 209)"><g id="Group_3508" data-name="Group 3508" transform="translate(11.35 15.886)"><g id="Group_3507" data-name="Group 3507"><path id="Path_2462" data-name="Path 2462" d="M212.346,231.513a.753.753,0,0,1-.293-1.446,1.029,1.029,0,0,1,1.106.334.752.752,0,0,0,1.047-1.08,2.954,2.954,0,0,0-1.108-.693v-.876a.752.752,0,0,0-1.5,0v.881c-.043.015-.085.031-.127.049a2.257,2.257,0,0,0,.88,4.335.752.752,0,0,1,.257,1.459,1.156,1.156,0,0,1-1.234-.524.752.752,0,1,0-1.152.968,3.126,3.126,0,0,0,1.376.983v.875a.752.752,0,1,0,1.5,0V235.9l.02-.007a2.257,2.257,0,0,0-.772-4.378Z" transform="translate(-210.042 -227)" fill="#b5b5b5"></path></g></g><g id="Group_3510" data-name="Group 3510"><g id="Group_3509" data-name="Group 3509"><path id="Path_2463" data-name="Path 2463" d="M84.881,14.079a14.857,14.857,0,0,0-4.333-3.248,2.755,2.755,0,0,0,.6-.943c.524-1.394-.241-3.051-2.195-3.59l2.738-4.173A.906.906,0,0,0,81.064.758a25.061,25.061,0,0,0-12.235,0A.906.906,0,0,0,68.2,2.125L70.936,6.3c-1.946.537-2.721,2.191-2.194,3.591a2.743,2.743,0,0,0,.6.942,14.856,14.856,0,0,0-4.333,3.249A14.267,14.267,0,0,0,61,23.562C61,30.381,67.225,32,74.946,32s13.946-1.622,13.946-8.438A14.268,14.268,0,0,0,84.881,14.079ZM70.762,2.264a22.718,22.718,0,0,1,8.368,0l-2.362,3.6a15.04,15.04,0,0,0-3.643,0Zm.7,5.855a12.626,12.626,0,0,1,5.656-.3h.007a12.659,12.659,0,0,1,1.3.3A.92.92,0,0,1,79.113,9.3a1.049,1.049,0,0,1-.9.639,12.286,12.286,0,0,0-6.52,0,1.049,1.049,0,0,1-.91-.637A.92.92,0,0,1,71.463,8.118Zm3.483,22.019c-8.382,0-11.8-1.914-11.8-6.575a12.681,12.681,0,0,1,3.53-8.3,10.743,10.743,0,0,1,16.541,0,12.681,12.681,0,0,1,3.53,8.3C86.747,28.224,83.328,30.137,74.946,30.137Z" transform="translate(-61 0)" fill="#b5b5b5"></path></g></g></g></g></svg>