<svg id="Group_4662" data-name="Group 4662" xmlns="http://www.w3.org/2000/svg" width="32" height="27.104" viewBox="0 0 32 27.104"><g id="Group_4661" data-name="Group 4661"><path id="Path_3105" data-name="Path 3105" d="M183.3,73.953a1.02,1.02,0,0,0,1.122-1.7c-2.167-1.427-3.323-3.007-3.637-4.972a4.291,4.291,0,0,1,.814-3.221,2.481,2.481,0,0,1,2-.863,2.684,2.684,0,0,1,2.614,1.894,4.635,4.635,0,0,1-1.2,4.936,1.02,1.02,0,0,0,1.317,1.557,6.671,6.671,0,0,0,1.8-7.194,4.7,4.7,0,0,0-4.528-3.23,4.528,4.528,0,0,0-3.555,1.576,6.3,6.3,0,0,0-1.278,4.864A9.341,9.341,0,0,0,183.3,73.953Z" transform="translate(-167.516 -61.156)" fill="#b5b5b5"></path><path id="Path_3106" data-name="Path 3106" d="M131.586,253.381H116.911c.037-4.566.322-5.923.449-6.3a5.39,5.39,0,0,1,2.442-2.25,4.7,4.7,0,0,0,3.969,2.274h0a4.664,4.664,0,0,0,3.934-2.273,5.385,5.385,0,0,1,2.44,2.249,12.616,12.616,0,0,1,.325,3.813c0,.25-.007.489-.007.71a1.028,1.028,0,0,0,2.055,0c0-.213,0-.442.007-.683a13.988,13.988,0,0,0-.43-4.486c-.776-2.307-4.068-3.745-4.441-3.9a1.029,1.029,0,0,0-1.354.56,2.807,2.807,0,0,1-2.528,1.971h0a2.863,2.863,0,0,1-2.564-1.971,1.029,1.029,0,0,0-1.354-.56c-.372.156-3.665,1.594-4.442,3.9-.371,1.1-.558,3.785-.558,7.966a1.023,1.023,0,0,0,1.028,1.019h15.707a1.019,1.019,0,1,0,0-2.038Z" transform="translate(-107.706 -228.315)" fill="#b5b5b5"></path><path id="Path_3107" data-name="Path 3107" d="M32.447,131.894c-1.414,0-2.564-1.48-2.564-3.3s1.15-3.3,2.564-3.3a2.282,2.282,0,0,1,1.872,1.092,3.036,3.036,0,0,1,.057,3.026,1.019,1.019,0,1,0,1.851.854,5.111,5.111,0,0,0-.192-4.979,4.278,4.278,0,0,0-3.589-2.031c-2.538,0-4.6,2.392-4.6,5.333s2.065,5.337,4.6,5.337a1.019,1.019,0,1,0,0-2.038Z" transform="translate(-26.111 -118.585)" fill="#b5b5b5"></path><path id="Path_3108" data-name="Path 3108" d="M5.047,291.165H2.076a29.369,29.369,0,0,1,.3-3.393A3.284,3.284,0,0,1,3.7,285.628a1.019,1.019,0,0,0-1.18-1.662A5.349,5.349,0,0,0,.375,287.4,40.5,40.5,0,0,0,0,292.159,1.019,1.019,0,0,0,1.019,293.2H5.046a1.019,1.019,0,1,0,0-2.038Z" transform="translate(0.001 -267.07)" fill="#b5b5b5"></path><path id="Path_3109" data-name="Path 3109" d="M349.5,128.576c0-2.941-2.065-5.333-4.6-5.333a4.281,4.281,0,0,0-3.591,2.03,5.114,5.114,0,0,0-.194,4.979,1.019,1.019,0,1,0,1.852-.853,3.035,3.035,0,0,1,.059-3.026,2.284,2.284,0,0,1,1.874-1.092c1.414,0,2.564,1.478,2.564,3.3s-1.15,3.3-2.564,3.3a1.019,1.019,0,0,0,0,2.039C347.43,133.914,349.5,131.52,349.5,128.576Z" transform="translate(-319.227 -118.567)" fill="#b5b5b5"></path><path id="Path_3110" data-name="Path 3110" d="M420.189,288.355A5.355,5.355,0,0,0,418.152,285a1.02,1.02,0,1,0-1.22,1.634,3.277,3.277,0,0,1,1.252,2.1,29.322,29.322,0,0,1,.3,3.391h-2.971a1.019,1.019,0,0,0,0,2.039h4.029a1.019,1.019,0,0,0,1.019-1.044A40.263,40.263,0,0,0,420.189,288.355Z" transform="translate(-388.565 -268.026)" fill="#b5b5b5"></path></g></svg>