<svg id="svgexport-6_37_" data-name="svgexport-6 (37)" xmlns="http://www.w3.org/2000/svg" width="32.015" height="32" viewBox="0 0 32.015 32"><path id="Path_3103" data-name="Path 3103" d="M14.86,0a1.14,1.14,0,0,0-1.14,1.14V14.86a3.43,3.43,0,0,0,3.43,3.43H30.86A1.14,1.14,0,0,0,32,17.14,17.16,17.16,0,0,0,14.86,0Zm2.29,16A1.14,1.14,0,0,1,16,14.86V2.33A14.88,14.88,0,0,1,29.67,16Z" transform="translate(0.015)" fill="#b5b5b5"></path><path id="Path_3104" data-name="Path 3104" d="M28.16,20.64a1.14,1.14,0,0,0-1.46.7A12.47,12.47,0,0,1,14.15,29.7a12.66,12.66,0,0,1-11.86-12A12.5,12.5,0,0,1,10.66,5.3,1.145,1.145,0,0,0,9.9,3.14,14.77,14.77,0,0,0,0,17.76,15,15,0,0,0,14,32h.84a14.73,14.73,0,0,0,14-9.9A1.14,1.14,0,0,0,28.16,20.64Z" transform="translate(0.015)" fill="#b5b5b5"></path></svg>