<svg xmlns="http://www.w3.org/2000/svg" width="32" height="25.438" viewBox="0 0 32 25.438"><g id="svgexport-6_39_" data-name="svgexport-6 (39)" transform="translate(0)"><g id="Group_4666" data-name="Group 4666" transform="translate(0 0)"><g id="Group_4665" data-name="Group 4665"><g id="Group_4664" data-name="Group 4664"><path id="Path_3111" data-name="Path 3111" d="M210.034,123.841a1.172,1.172,0,0,0-1.488-.14c-1.753,1.195-10.545,7.2-11.49,8.147a3.514,3.514,0,0,0,4.97,4.97c.945-.945,6.953-9.737,8.147-11.49A1.172,1.172,0,0,0,210.034,123.841Zm-9.664,11.321a1.171,1.171,0,0,1-1.657-1.656c.367-.363,2.863-2.143,5.934-4.278C202.512,132.3,200.732,134.8,200.369,135.162Z" transform="translate(-182.536 -118.639)" fill="#b5b5b5"></path><path id="Path_3112" data-name="Path 3112" d="M5.9,74.313l-1.579.753a13.161,13.161,0,0,1-.862-11.359l1.81.848a1.3,1.3,0,0,0,.552.123,1.282,1.282,0,0,0,1.154-.71,1.238,1.238,0,0,0-.6-1.668l-1.787-.837A13.873,13.873,0,0,1,15.1,55.056v1.88a1.28,1.28,0,0,0,2.559,0V55.055a13.913,13.913,0,0,1,4.4,1.132,1.292,1.292,0,0,0,1.692-.625,1.239,1.239,0,0,0-.64-1.654A16.689,16.689,0,0,0,4.8,57.185a15.685,15.685,0,0,0-2.022,20.2A1.3,1.3,0,0,0,4.4,77.81l2.623-1.25a1.237,1.237,0,0,0,.589-1.672A1.293,1.293,0,0,0,5.9,74.313Z" transform="translate(0 -52.499)" fill="#b5b5b5"></path><path id="Path_3113" data-name="Path 3113" d="M395.819,192.184a1.171,1.171,0,1,0-2.135.964,12.61,12.61,0,0,1-.5,11.362l-1.51-.719a1.171,1.171,0,0,0-1.007,2.115l2.46,1.171a1.171,1.171,0,0,0,1.478-.407,14.959,14.959,0,0,0,1.219-14.487Z" transform="translate(-365.141 -181.754)" fill="#b5b5b5"></path></g></g></g></g></svg>