<svg id="pool" xmlns="http://www.w3.org/2000/svg" width="36" height="36" viewBox="0 0 36 36"><g transform="translate(0.001 0)"><g id="XMLID_2194_" transform="translate(-0.001 0)"><g id="XMLID_652_"><path id="XMLID_655_" d="M34.8,470.375a2.019,2.019,0,0,1-2.849,0,3.432,3.432,0,0,0-4.838,0,2.019,2.019,0,0,1-2.849,0,3.432,3.432,0,0,0-4.838,0,2.019,2.019,0,0,1-2.849,0,3.432,3.432,0,0,0-4.838,0,2.019,2.019,0,0,1-2.849,0,3.432,3.432,0,0,0-4.838,0,2.019,2.019,0,0,1-2.849,0,.7.7,0,0,0-.994.992,3.428,3.428,0,0,0,4.838,0,2.021,2.021,0,0,1,2.849,0,3.428,3.428,0,0,0,4.838,0,2.021,2.021,0,0,1,2.849,0,3.428,3.428,0,0,0,4.838,0,2.021,2.021,0,0,1,2.849,0,3.428,3.428,0,0,0,4.838,0,2.021,2.021,0,0,1,2.849,0,3.428,3.428,0,0,0,4.838,0,.7.7,0,0,0-.994-.992Z" transform="translate(0 -436.366)" fill="#747070"></path><path id="XMLID_684_" d="M34.8,389.821a2.019,2.019,0,0,1-2.849,0,3.432,3.432,0,0,0-4.838,0,2.019,2.019,0,0,1-2.849,0,3.432,3.432,0,0,0-4.838,0,2.021,2.021,0,0,1-2.849,0,3.432,3.432,0,0,0-4.838,0,2.019,2.019,0,0,1-2.849,0,3.432,3.432,0,0,0-4.838,0,2.019,2.019,0,0,1-2.849,0,.7.7,0,0,0-.994.992,3.432,3.432,0,0,0,4.838,0,2.021,2.021,0,0,1,2.849,0,3.432,3.432,0,0,0,4.838,0,2.021,2.021,0,0,1,2.849,0,3.432,3.432,0,0,0,4.838,0,2.021,2.021,0,0,1,2.849,0,3.432,3.432,0,0,0,4.838,0,2.021,2.021,0,0,1,2.849,0,3.432,3.432,0,0,0,4.838,0,.7.7,0,0,0-.994-.992Z" transform="translate(0 -361.478)" fill="#747070"></path><path id="XMLID_706_" d="M.7,7.322H12.046V22.431a3.432,3.432,0,0,0-.31.274,2.013,2.013,0,0,1-2.849,0,3.422,3.422,0,0,0-4.838,0,2.013,2.013,0,0,1-2.849,0,.7.7,0,1,0-.994,1,3.422,3.422,0,0,0,4.838,0,2.015,2.015,0,0,1,2.849,0,3.422,3.422,0,0,0,4.838,0,2.015,2.015,0,0,1,2.849,0,3.422,3.422,0,0,0,4.838,0,2.015,2.015,0,0,1,2.849,0,3.422,3.422,0,0,0,4.838,0,2.015,2.015,0,0,1,2.849,0,3.422,3.422,0,0,0,4.838,0,.7.7,0,0,0-.994-1,2.013,2.013,0,0,1-2.849,0,3.441,3.441,0,0,0-.31-.274V7.322H35.3a.7.7,0,0,0,0-1.408H31.6a6.609,6.609,0,0,0-13.144,0H16.227a6.609,6.609,0,0,0-13.144,0H.7a.7.7,0,0,0,0,1.408ZM7.371,5.914a2.39,2.39,0,0,1,4.57,0ZM27.421,7.322V9.293H16.265V7.322Zm0,4.787H16.265V10.7H27.421ZM16.265,13.517H27.421v1.971H16.265Zm6.481-7.6a2.39,2.39,0,0,1,4.57,0ZM25.687,23.3a2,2,0,0,1-1.425-.591,3.422,3.422,0,0,0-4.838,0,2.015,2.015,0,0,1-2.849,0,3.431,3.431,0,0,0-.31-.274V19.713h2.414a.7.7,0,0,0,0-1.408H16.265V16.9H27.421V18.3H25.007a.7.7,0,0,0,0,1.408h2.414v2.718a3.432,3.432,0,0,0-.31.274A2,2,0,0,1,25.687,23.3ZM25.03,1.408a5.212,5.212,0,0,1,5.2,5.21V21.776a3.443,3.443,0,0,0-1.406,0V6.618a3.8,3.8,0,0,0-7.527-.7H19.876A5.212,5.212,0,0,1,25.03,1.408Zm-15.375,0a5.212,5.212,0,0,1,5.2,5.21V21.776a3.443,3.443,0,0,0-1.406,0V6.618a3.8,3.8,0,0,0-7.527-.7H4.5A5.212,5.212,0,0,1,9.655,1.408Z" transform="translate(0.001 0)" fill="#747070"></path><path id="XMLID_715_" d="M301.371,260a.7.7,0,1,0,.5.205A.708.708,0,0,0,301.371,260Z" transform="translate(-279.527 -241.717)" fill="#747070"></path></g></g></g></svg>