<svg id="Ratings" xmlns="http://www.w3.org/2000/svg" width="24" height="24" viewBox="0 0 24 24">
  <defs>
    <style>
      .cls-1 {
        fill: rgba(255,255,255,0);
      }

      .cls-2 {
        fill: #5A409B;
      }
    </style>
  </defs>
  <rect id="Icons_24_Ratings_background" data-name="Icons/24/Ratings background" class="cls-1" width="24" height="24"/>
  <path id="Ratings-2" data-name="Ratings" class="cls-2" d="M15.356,17.8a.991.991,0,0,0,.392-.644,1.816,1.816,0,0,0-.117-.909l-1.685-4.965,4.3-3.065a1.956,1.956,0,0,0,.642-.682.922.922,0,0,0,.05-.748.967.967,0,0,0-.484-.562,1.891,1.891,0,0,0-.918-.182l-5.289.041-1.6-5a2.012,2.012,0,0,0-.459-.81A.957.957,0,0,0,9.492,0a.937.937,0,0,0-.684.281,2.012,2.012,0,0,0-.459.81l-1.61,5L1.458,6.048a1.925,1.925,0,0,0-.918.178.951.951,0,0,0-.484.566.922.922,0,0,0,.05.748,1.977,1.977,0,0,0,.634.682l4.313,3.065L3.368,16.251a1.816,1.816,0,0,0-.117.909.991.991,0,0,0,.392.644.914.914,0,0,0,.73.182,2.073,2.073,0,0,0,.855-.388l4.263-3.115,4.28,3.115a2.075,2.075,0,0,0,.851.388A.932.932,0,0,0,15.356,17.8Z" transform="translate(3 3)"/>
</svg>