<svg xmlns="http://www.w3.org/2000/svg" width="26.226" height="30.418" viewBox="0 0 26.226 30.418"><g id="Group_6458" data-name="Group 6458" transform="translate(-1095.333 -1758.764)"><path id="Path_3116" data-name="Path 3116" d="M92.232,217.363H80.6a.621.621,0,0,0,0,1.241H92.232A.621.621,0,0,0,92.232,217.363Zm0,0" transform="translate(1019.416 1551.071)" fill="#b5b5b5"></path><path id="Path_3117" data-name="Path 3117" d="M92.232,285.422H80.6a.621.621,0,0,0,0,1.241H92.232A.621.621,0,0,0,92.232,285.422Zm0,0" transform="translate(1019.416 1486.354)" fill="#b5b5b5"></path><path id="Path_3118" data-name="Path 3118" d="M92.853,354.1a.621.621,0,0,0-.621-.62H80.6a.621.621,0,0,0,0,1.241H92.232A.621.621,0,0,0,92.853,354.1Zm0,0" transform="translate(1019.415 1421.64)" fill="#b5b5b5"></path><path id="Path_3119" data-name="Path 3119" d="M80.6,421.527a.621.621,0,0,0,0,1.241h8a.621.621,0,0,0,0-1.241Zm0,0" transform="translate(1019.416 1356.93)" fill="#b5b5b5"></path><path id="Path_3120" data-name="Path 3120" d="M18.053,20.2V14.773a.621.621,0,0,0-1.241,0V20.2a5.625,5.625,0,0,0-4.656,7.537H-1.928V2.241H10.823V8.2a.62.62,0,0,0,.62.62h5.369v.964a.621.621,0,0,0,1.241,0V8.2a.627.627,0,0,0-.161-.417L11.9,1.2a.619.619,0,0,0-.487-.2H-1.928A1.243,1.243,0,0,0-3.169,2.241v25.5a1.243,1.243,0,0,0,1.241,1.241H12.8A5.623,5.623,0,1,0,18.053,20.2ZM12.064,3.225l3.965,4.358H12.064Zm5.368,26.953a4.383,4.383,0,1,1,4.384-4.384A4.388,4.388,0,0,1,17.432,30.178Zm0,0" transform="translate(1098.502 1757.763)" fill="#b5b5b5"></path><path id="Path_3121" data-name="Path 3121" d="M404.476,463.469a.62.62,0,0,0-.62.62v2.779a.621.621,0,0,0,1.241,0v-2.779A.62.62,0,0,0,404.476,463.469Zm0,0" transform="translate(711.458 1317.047)" fill="#b5b5b5"></path><path id="Path_3122" data-name="Path 3122" d="M404.493,563.469a.619.619,0,1,0,.62.606A.627.627,0,0,0,404.493,563.469Zm0,0" transform="translate(711.441 1221.956)" fill="#b5b5b5"></path><path id="Path_3123" data-name="Path 3123" d="M404.493,237.309a.619.619,0,1,0,.62.606A.627.627,0,0,0,404.493,237.309Zm0,0" transform="translate(711.441 1532.104)" fill="#b5b5b5"></path></g></svg>