<svg xmlns="http://www.w3.org/2000/svg" width="32" height="32" viewBox="0 0 32 32"><path id="Path_2464" data-name="Path 2464" d="M30.75,22A1.25,1.25,0,0,0,32,20.75V7.5a5.006,5.006,0,0,0-5-5H25.375V1.25a1.25,1.25,0,0,0-2.5,0V2.5H17.188V1.25a1.25,1.25,0,1,0-2.5,0V2.5H9.063V1.25a1.25,1.25,0,0,0-2.5,0V2.5H5a5.006,5.006,0,0,0-5,5V27a5.006,5.006,0,0,0,5,5H27a5.006,5.006,0,0,0,5-5,1.25,1.25,0,1,0-2.5,0A2.5,2.5,0,0,1,27,29.5H5A2.5,2.5,0,0,1,2.5,27V7.5A2.5,2.5,0,0,1,5,5H6.563V6.25a1.25,1.25,0,1,0,2.5,0V5h5.625V6.25a1.25,1.25,0,1,0,2.5,0V5h5.688V6.25a1.25,1.25,0,0,0,2.5,0V5H27a2.5,2.5,0,0,1,2.5,2.5V20.75A1.25,1.25,0,0,0,30.75,22Z" fill="#b5b5b5"></path><path id="Path_2465" data-name="Path 2465" d="M146.313,201.572l-6.615,9.447a.753.753,0,0,1-.528.269.745.745,0,0,1-.575-.21l-4.283-4.2a1.321,1.321,0,0,0-1.9.039,1.394,1.394,0,0,0,.038,1.94l4.287,4.208a3.421,3.421,0,0,0,2.381.972q.114,0,.228-.008a3.437,3.437,0,0,0,2.461-1.31q.023-.03.045-.061l6.642-9.485a1.392,1.392,0,0,0-.31-1.914A1.323,1.323,0,0,0,146.313,201.572Z" transform="translate(-124.608 -189.16)" fill="#b5b5b5"></path></svg>