<svg xmlns="http://www.w3.org/2000/svg" width="16" height="20" viewBox="0 0 16 20">
  <defs>
    <style>
      .cls-1 {
        fill: #12ca6c;
      }
    </style>
  </defs>
  <g id="Pay_Safely_" data-name="Pay Safely " transform="translate(-4 -2)">
    <path id="Pay_Safely_2" data-name="Pay Safely " class="cls-1" d="M8,20a1.18,1.18,0,0,1-.312-.049,1.737,1.737,0,0,1-.36-.15c-1.347-.769-2.5-1.467-3.435-2.073a13.6,13.6,0,0,1-2.263-1.783A5.56,5.56,0,0,1,.389,14.071,6.523,6.523,0,0,1,0,11.718V4.3a2.622,2.622,0,0,1,.148-.959,1.489,1.489,0,0,1,.457-.614,3.447,3.447,0,0,1,.8-.454C1.665,2.155,2.054,2,2.561,1.8c.472-.183,1.01-.387,1.643-.625C4.71.99,5.3.769,5.843.57,6.346.384,6.734.25,7,.17A3.451,3.451,0,0,1,7.5.045a2.88,2.88,0,0,1,1.014,0,3.4,3.4,0,0,1,.5.125l.118.04.281.1c.187.066.417.148.745.266.516.187,1.069.391,1.643.6.608.226,1.147.431,1.648.625s.9.352,1.158.464a3.539,3.539,0,0,1,.787.454,1.479,1.479,0,0,1,.456.614A2.6,2.6,0,0,1,16,4.3v7.422a6.917,6.917,0,0,1-.375,2.373A5.477,5.477,0,0,1,14.4,16a12.669,12.669,0,0,1-2.254,1.788c-.938.6-2.108,1.281-3.479,2.012a1.737,1.737,0,0,1-.36.15A1.157,1.157,0,0,1,8,20ZM4.267,9.341a.825.825,0,0,0-.625.279.946.946,0,0,0-.26.66,1.041,1.041,0,0,0,.067.37A1.45,1.45,0,0,0,3.642,11L6,13.966a1.5,1.5,0,0,0,.432.394,1,1,0,0,0,.5.125.968.968,0,0,0,.5-.135,1.305,1.305,0,0,0,.4-.384l4.5-7.283a2.273,2.273,0,0,0,.178-.35.969.969,0,0,0,.072-.359.8.8,0,0,0-.283-.64.97.97,0,0,0-.639-.239.928.928,0,0,0-.8.529L6.9,12.208,5.054,9.79a1.184,1.184,0,0,0-.364-.349A.875.875,0,0,0,4.267,9.341Z" transform="translate(4 2)"/>
  </g>
</svg>