<svg xmlns="http://www.w3.org/2000/svg" width="32.532" height="32.522" viewBox="0 0 32.532 32.522"><path id="outline" d="M24.923,32a1.506,1.506,0,0,1-.727-.189L16,27.3,7.8,31.811a1.506,1.506,0,0,1-1.643-.127,1.671,1.671,0,0,1-.622-1.6L7.1,20.541.471,13.78A1.688,1.688,0,0,1,.077,12.1a1.584,1.584,0,0,1,1.262-1.112L10.5,9.6,14.6.912a1.533,1.533,0,0,1,2.8,0L21.5,9.6l9.162,1.394A1.584,1.584,0,0,1,31.923,12.1a1.688,1.688,0,0,1-.395,1.675L24.9,20.541l1.563,9.547a1.69,1.69,0,0,1-.345,1.33A1.536,1.536,0,0,1,24.923,32ZM16,23.824a1.518,1.518,0,0,1,.727.187l6.122,3.367-1.17-7.13A1.683,1.683,0,0,1,22.13,18.8l4.95-5.052-6.842-1.038a1.57,1.57,0,0,1-1.176-.9L16,5.329l-3.06,6.486a1.57,1.57,0,0,1-1.176.9L4.92,13.751,9.872,18.8a1.683,1.683,0,0,1,.451,1.447l-1.17,7.132,6.122-3.367A1.508,1.508,0,0,1,16,23.822Z" transform="translate(0.266 0.25)" fill="#b5b5b5" stroke="#fff" stroke-width="0.5" fill-rule="evenodd"></path></svg>