<svg xmlns="http://www.w3.org/2000/svg" width="39.587" height="11.639" viewBox="0 0 39.587 11.639"><g id="_366497" data-name="366497" transform="translate(0 0)"><path id="Path_2480" data-name="Path 2480" d="M322.862,222.587v-6.148H323.9v.493a1.682,1.682,0,0,1,1.371-.612,2.356,2.356,0,0,1,0,4.675,1.683,1.683,0,0,1-1.371-.623v2.216h-1.043Zm1.043-4.5v1.133a1.29,1.29,0,0,0,1.19.793c.691,0,1.156-.516,1.156-1.366s-.465-1.349-1.156-1.349a1.276,1.276,0,0,0-1.19.788" transform="translate(-297.187 -213.992)" fill="#02aa7c"></path><path id="Path_2481" data-name="Path 2481" d="M381.415,220.777a1.31,1.31,0,0,1,1.235-1.366l1.774-.227v-.221a.356.356,0,0,0-.385-.408h-2.227v-.946h2.267c.9,0,1.394.442,1.394,1.224v3.2h-1.054V221.5a1.707,1.707,0,0,1-1.462.674,1.4,1.4,0,0,1-1.541-1.394m1.8.544a1.3,1.3,0,0,0,1.207-.742v-.555l-1.354.187c-.374.051-.584.249-.584.572,0,.346.266.538.731.538" transform="translate(-350.589 -215.167)" fill="#02aa7c"></path><path id="Path_2482" data-name="Path 2482" d="M434.111,222.816h.759a.482.482,0,0,0,.516-.391l.136-.391-1.609-4.426H435l1,3.083h.023l.958-3.083h1.071l-1.762,5.083c-.238.7-.555,1.071-1.332,1.071h-.85v-.946Z" transform="translate(-398.468 -215.166)" fill="#02aa7c"></path><path id="Path_2483" data-name="Path 2483" d="M34.825,201.487a4.061,4.061,0,0,0,2.867-1.014,2.628,2.628,0,0,0,.782-1.9,2.465,2.465,0,0,0-.725-1.774,3.79,3.79,0,0,0-1.995-.98l-1.394-.272c-.578-.108-.907-.4-.907-.8,0-.527.51-.89,1.326-.89a1.721,1.721,0,0,1,1.235.453,1.372,1.372,0,0,1,.346.742l2.012-.453a2.484,2.484,0,0,0-.742-1.507,4.064,4.064,0,0,0-2.873-1.065,3.932,3.932,0,0,0-2.669.941,2.647,2.647,0,0,0-.85,1.961,2.255,2.255,0,0,0,.652,1.666,3.971,3.971,0,0,0,1.9.963l1.377.329c.691.164,1,.419,1,.873,0,.561-.51.89-1.343.89a1.865,1.865,0,0,1-1.394-.527,1.266,1.266,0,0,1-.363-.833L31,198.739a2.586,2.586,0,0,0,.782,1.6,4.2,4.2,0,0,0,3.043,1.15m15.311,0a4.3,4.3,0,0,0,3.083-1.179,4.03,4.03,0,0,0,1.088-1.83l-2.119-.708a2.014,2.014,0,0,1-.561.941,2.061,2.061,0,0,1-1.49.561,2.293,2.293,0,0,1-1.615-.652,2.629,2.629,0,0,1-.674-1.87,2.6,2.6,0,0,1,.674-1.87,2.206,2.206,0,0,1,1.6-.635,1.923,1.923,0,0,1,1.434.544,2.309,2.309,0,0,1,.544.963l2.159-.725a4.127,4.127,0,0,0-1.014-1.8,4.415,4.415,0,0,0-3.173-1.213,4.582,4.582,0,0,0-3.281,1.326,4.959,4.959,0,0,0,.034,6.823,4.632,4.632,0,0,0,3.315,1.32m-7.327,0a3.031,3.031,0,0,0,1.9-.544v-1.961a2.094,2.094,0,0,1-1.218.363,1.017,1.017,0,0,1-1.179-1.2v-8.3h-2.4V192.3h4.788v2.323H39.919v4.12a2.771,2.771,0,0,0,.708,1.978,3.035,3.035,0,0,0,2.182.771" transform="translate(-31 -189.848)" fill="#502c84"></path></g></svg>