<svg xmlns="http://www.w3.org/2000/svg" width="32.266" height="32" viewBox="0 0 32.266 32"><g id="svgexport-6_41_" data-name="svgexport-6 (41)" transform="translate(0 -3.232)"><g id="Layer_1" transform="translate(0 3.232)"><g id="Group_4667" data-name="Group 4667"><path id="Path_3114" data-name="Path 3114" d="M33.154,16.08H32.041V13.085c0-2.583-1.827-4.685-4.072-4.685H26.478V6.685C26.478,4.1,24.651,2,22.405,2H6.072C3.827,2,2,4.1,2,6.685v22.63C2,31.9,3.827,34,6.072,34h21.9c2.245,0,4.072-2.1,4.072-4.685V26.32h1.113a1.209,1.209,0,0,0,1.113-1.28V17.36A1.209,1.209,0,0,0,33.154,16.08ZM29.816,29.315a2,2,0,0,1-1.847,2.125H6.072a2,2,0,0,1-1.847-2.125V6.685A2,2,0,0,1,6.072,4.56H22.405a2,2,0,0,1,1.847,2.125V8.4H9.788A1.205,1.205,0,0,0,8.676,9.68a1.205,1.205,0,0,0,1.113,1.28h18.18a2,2,0,0,1,1.847,2.125V16.08H23.14a4.181,4.181,0,0,0-3.149,1.5,5.542,5.542,0,0,0-1.3,3.622c0,2.829,1.992,5.12,4.451,5.12h6.676Zm2.225-5.555h-8.9a2.417,2.417,0,0,1-2.225-2.56,2.742,2.742,0,0,1,.656-1.8,2.073,2.073,0,0,1,1.569-.755h8.9Z" transform="translate(-2 -2)" fill="#b5b5b5"></path><path id="Path_3115" data-name="Path 3115" d="M20.689,16.088a1.284,1.284,0,0,0-.367.234,1.128,1.128,0,0,0,0,1.58,1.3,1.3,0,0,0,.367.234,1.115,1.115,0,0,0,.423.089,1.117,1.117,0,0,0,.79-1.9,1.133,1.133,0,0,0-1.213-.234Z" transform="translate(0.027 -1.635)" fill="#b5b5b5"></path></g></g></g></svg>