<svg id="svgexport-6_83_" data-name="svgexport-6 (83)" xmlns="http://www.w3.org/2000/svg" width="42.667" height="40" viewBox="0 0 42.667 40">
  <defs>
    <style>
      .cls-1 {
        fill: #404040;
      }
    </style>
  </defs>
  <path id="Path_7324" data-name="Path 7324" class="cls-1" d="M383.624,102.969l-2.043,1.992.482,2.812-2.526-1.327-2.527,1.327.482-2.812-2.043-1.992,2.824-.41L379.537,100l1.262,2.559Zm0,0" transform="translate(-343.984 -91.634)"/>
  <path id="Path_7325" data-name="Path 7325" class="cls-1" d="M197.131,14.2,194.26,17l.678,3.952-3.548-1.866-3.548,1.866L188.52,17l-2.871-2.8,3.967-.576L191.39,10l1.774,3.628Zm0,0" transform="translate(-170.087 -9.18)"/>
  <path id="Path_7326" data-name="Path 7326" class="cls-1" d="M43.624,102.969l-2.043,1.992.482,2.812-2.526-1.327-2.527,1.327.482-2.812-2.043-1.992,2.824-.41L39.537,100l1.263,2.559Zm0,0" transform="translate(-32.542 -91.634)"/>
  <g id="Group_6388" data-name="Group 6388" transform="translate(0.82 16.211)">
    <path id="Path_7327" data-name="Path 7327" class="cls-1" d="M44.1,351.641a7.174,7.174,0,0,0-5.7,2.779,9.254,9.254,0,0,0-15.782,0,7.174,7.174,0,0,0-5.7-2.779A6.839,6.839,0,0,0,10,358.2v1.641H51.026V358.2A6.839,6.839,0,0,0,44.1,351.641Zm0,0" transform="translate(-10 -336.875)"/>
    <path id="Path_7328" data-name="Path 7328" class="cls-1" d="M377.2,254.1a4.1,4.1,0,1,1-4.1-4.1A4.1,4.1,0,0,1,377.2,254.1Zm0,0" transform="translate(-338.884 -245.078)"/>
    <path id="Path_7329" data-name="Path 7329" class="cls-1" d="M197.484,195.742A5.742,5.742,0,1,1,191.742,190,5.742,5.742,0,0,1,197.484,195.742Zm0,0" transform="translate(-171.229 -190)"/>
    <path id="Path_7330" data-name="Path 7330" class="cls-1" d="M51.2,254.1a4.1,4.1,0,1,1-4.1-4.1A4.1,4.1,0,0,1,51.2,254.1Zm0,0" transform="translate(-40.293 -245.078)"/>
  </g>
  <path id="Path_7331" data-name="Path 7331" class="cls-1" d="M247.641,380.82a.82.82,0,1,1-.82-.82A.82.82,0,0,1,247.641,380.82Zm0,0" transform="translate(-225.487 -348.312)"/>
  <path id="Path_7332" data-name="Path 7332" class="cls-1" d="M368.844,244.922a4.922,4.922,0,1,0-4.922,4.922A4.927,4.927,0,0,0,368.844,244.922Zm-4.922,3.281a3.281,3.281,0,1,1,3.281-3.281A3.285,3.285,0,0,1,363.922,248.2Zm0,0" transform="translate(-328.884 -219.896)"/>
  <path id="Path_7333" data-name="Path 7333" class="cls-1" d="M34.917,341.641a8.21,8.21,0,0,0-5.62,2.249,10.095,10.095,0,0,0-15.925,0,8.213,8.213,0,0,0-5.621-2.249A7.675,7.675,0,0,0,0,349.023v1.641a.827.827,0,0,0,.833.82h41a.827.827,0,0,0,.833-.82v-1.641A7.675,7.675,0,0,0,34.917,341.641Zm-33.25,7.383a6,6,0,0,1,6.083-5.742,6.408,6.408,0,0,1,4.7,2.038,9.72,9.72,0,0,0-1.118,4.525H1.667Zm19.667-7.383a8.267,8.267,0,0,1,8.333,8.2H13A8.276,8.276,0,0,1,21.333,341.641ZM41,349.844H31.333a9.72,9.72,0,0,0-1.118-4.525,6.408,6.408,0,0,1,4.7-2.038A6,6,0,0,1,41,349.023Zm0,0" transform="translate(0 -311.484)"/>
  <path id="Path_7334" data-name="Path 7334" class="cls-1" d="M42.844,244.922a4.922,4.922,0,1,0-4.922,4.922A4.927,4.927,0,0,0,42.844,244.922ZM37.922,248.2a3.281,3.281,0,1,1,3.281-3.281A3.285,3.285,0,0,1,37.922,248.2Zm0,0" transform="translate(-30.293 -219.896)"/>
  <path id="Path_7335" data-name="Path 7335" class="cls-1" d="M189.125,186.563a6.563,6.563,0,1,0-6.562,6.563A6.57,6.57,0,0,0,189.125,186.563Zm-6.562,4.922a4.922,4.922,0,1,1,4.922-4.922A4.927,4.927,0,0,1,182.563,191.484Zm0,0" transform="translate(-161.229 -164.883)"/>
  <path id="Path_7336" data-name="Path 7336" class="cls-1" d="M188.735,4.771a.82.82,0,0,0-.662-.558L184.534,3.7,182.95.46a.82.82,0,0,0-1.474,0L179.892,3.7l-3.538.513a.82.82,0,0,0-.455,1.4l2.562,2.5-.6,3.526a.82.82,0,0,0,1.19.865l3.166-1.665L185.38,12.5a.82.82,0,0,0,1.19-.865l-.605-3.526,2.562-2.5a.82.82,0,0,0,.208-.841Zm-4.224,2.464a.82.82,0,0,0-.236.726l.4,2.313-2.077-1.092a.821.821,0,0,0-.764,0l-2.076,1.092.4-2.313a.821.821,0,0,0-.236-.726L178.235,5.6l2.322-.337a.819.819,0,0,0,.619-.451l1.038-2.121,1.037,2.121a.82.82,0,0,0,.619.451l2.322.337Zm0,0" transform="translate(-160.91)"/>
  <path id="Path_7337" data-name="Path 7337" class="cls-1" d="M375.224,93.536a.82.82,0,0,0-.662-.558l-2.4-.348-1.072-2.173a.82.82,0,0,0-.735-.457h0a.82.82,0,0,0-.735.457l-1.073,2.173-2.4.348a.82.82,0,0,0-.455,1.4l1.734,1.692-.41,2.387a.821.821,0,0,0,1.19.865l2.145-1.127L372.5,99.32a.82.82,0,0,0,1.19-.865l-.41-2.387,1.735-1.692A.82.82,0,0,0,375.224,93.536Zm-3.4,1.659a.819.819,0,0,0-.236.726l.2,1.174-1.055-.554a.82.82,0,0,0-.763,0l-1.056.554.2-1.174a.821.821,0,0,0-.236-.726l-.854-.832,1.18-.171a.821.821,0,0,0,.618-.449l.527-1.069.527,1.068a.82.82,0,0,0,.618.449l1.18.171Zm0,0" transform="translate(-334.804 -82.463)"/>
  <path id="Path_7338" data-name="Path 7338" class="cls-1" d="M35.224,93.536a.82.82,0,0,0-.662-.558l-2.4-.348-1.072-2.173a.82.82,0,0,0-1.471,0l-1.072,2.173-2.4.348a.82.82,0,0,0-.455,1.4l1.735,1.692-.409,2.387a.82.82,0,0,0,1.19.865l2.145-1.127L32.5,99.32a.82.82,0,0,0,1.19-.865l-.41-2.387,1.735-1.692a.82.82,0,0,0,.207-.841Zm-3.4,1.659a.82.82,0,0,0-.236.726l.2,1.174-1.055-.554a.819.819,0,0,0-.763,0l-1.056.554.2-1.174a.82.82,0,0,0-.236-.726l-.854-.832,1.18-.171a.821.821,0,0,0,.617-.449l.527-1.069.527,1.068a.82.82,0,0,0,.618.449l1.18.171Zm0,0" transform="translate(-23.361 -82.463)"/>
  <path id="Path_7339" data-name="Path 7339" class="cls-1" d="M285.6,391.584a.82.82,0,1,0-.9,1.371,4.951,4.951,0,0,1,1.753,2.009.82.82,0,0,0,1.481-.7,6.588,6.588,0,0,0-2.334-2.675Zm0,0" transform="translate(-260.598 -358.713)"/>
</svg>