<svg id="attention-triangle-svgrepo-com" xmlns="http://www.w3.org/2000/svg" width="17.719" height="15.947" viewBox="0 0 17.719 15.947" class="jsx-3826223141"><path id="Path_2648" data-name="Path 2648" d="M11.921,9.773a.607.607,0,0,1,.616.6v3.183a.616.616,0,0,1-1.232,0V10.37A.607.607,0,0,1,11.921,9.773Z" transform="translate(-3.061 -3.773)" class="jsx-3826223141 cls-1"></path><path id="Path_2649" data-name="Path 2649" d="M12.716,16.631a.822.822,0,1,1-.822-.8A.809.809,0,0,1,12.716,16.631Z" transform="translate(-3.035 -4.465)" class="jsx-3826223141 cls-2"></path><path id="Path_2650" data-name="Path 2650" d="M9.033,3.938a2.247,2.247,0,0,1,3.653,0c1.094,1.552,2.643,3.809,3.679,5.578,1.088,1.858,2.326,4.4,3.15,6.153A2.144,2.144,0,0,1,17.627,18.7c-1.92.11-4.68.244-6.768.244s-4.847-.134-6.768-.244A2.144,2.144,0,0,1,2.2,15.67c.824-1.753,2.062-4.3,3.15-6.153C6.39,7.747,7.938,5.49,9.033,3.938Zm2.636.673a.992.992,0,0,0-1.618,0c-1.093,1.55-2.616,3.771-3.625,5.494-1.059,1.808-2.278,4.309-3.1,6.059a.95.95,0,0,0,.84,1.347c1.918.11,4.646.242,6.695.242s4.776-.132,6.695-.242a.95.95,0,0,0,.84-1.347c-.823-1.75-2.042-4.251-3.1-6.059C14.285,8.383,12.761,6.161,11.669,4.612Z" transform="translate(-2 -3)" class="jsx-3826223141 cls-1"></path></svg>